<?xml version="1.0" standalone="no"?>
<!DOCTYPE svg PUBLIC "-//W3C//DTD SVG 1.1//EN" "http://www.w3.org/Graphics/SVG/1.1/DTD/svg11.dtd" >
<svg xmlns="http://www.w3.org/2000/svg">
<metadata>
<json>
<![CDATA[
{
	"fontFamily": "MSIcons",
	"majorVersion": 1,
	"minorVersion": 0,
	"version": "Version 1.0",
	"fontId": "MSIcons",
	"psName": "MSIcons",
	"subFamily": "Regular",
	"fullName": "MSIcons",
	"description": "Font generated by IcoMoon."
}
]]>
</json>
</metadata>
<defs>
<font id="MSIcons" horiz-adv-x="1024">
<font-face units-per-em="1024" ascent="960" descent="-64" />
<missing-glyph horiz-adv-x="1024" />
<glyph unicode="&#x20;" horiz-adv-x="512" d="" />
<glyph unicode="&#xe900;" glyph-name="soldier-a" data-tags="soldier-a" d="M446.701 959.83c-6.485-0.801-19.614-3.683-23.536-5.124-9.607-3.603-16.331-10.007-21.295-20.414-4.163-8.646-6.805-19.534-8.806-36.826-2.482-22.095-4.723-28.42-11.448-32.983-8.406-5.684-19.854-8.486-34.024-8.326-11.608 0.080-16.011-1.121-24.417-6.805-7.045-4.803-24.097-21.695-28.5-28.26-6.885-10.167-7.765-14.97-8.886-50.675-0.881-25.858-1.201-30.902-3.522-56.279-0.721-7.445-1.601-25.137-2.001-39.227-0.64-21.375-1.041-26.579-2.322-31.222-0.881-3.042-2.562-9.847-3.763-15.131-2.562-11.048-5.284-16.812-12.329-25.618-8.486-10.727-9.206-12.569-16.892-44.911-1.361-5.684-3.362-14.010-4.403-18.413-2.081-8.646-4.723-20.174-6.485-28.42-2.242-10.407-2.081-10.808 6.404-17.852 7.685-6.404 8.886-12.969 4.963-27.379-2.882-10.327-5.604-17.212-9.447-23.456-6.565-10.727-12.649-27.059-12.649-33.944 0-1.601-0.961-7.365-2.081-12.809-4.803-23.136-7.685-44.511-9.927-73.491-0.48-6.404-1.201-14.81-1.601-18.813l-0.64-7.205 4.243-4.563c4.883-5.284 6.805-10.007 6.805-16.972 0-7.845-1.041-10.167-8.006-17.692-3.522-3.763-6.645-8.006-7.045-9.447-0.48-1.361-2.081-5.604-3.683-9.286-3.522-8.086-5.524-15.691-7.685-28.34-2.081-12.569-3.683-18.813-7.045-26.979-1.521-3.763-3.362-9.126-4.163-12.008s-3.042-9.046-5.124-13.77c-2.001-4.723-3.683-8.886-3.683-9.286s-2.001-3.923-4.483-7.845c-6.244-9.767-10.487-18.493-11.528-23.296-1.121-5.284-0.32-7.125 7.365-17.212 8.966-11.768 9.767-13.77 9.206-22.175-0.64-8.566-3.843-21.695-6.965-28.82-2.562-6.004-3.603-10.087-4.883-19.133-1.441-10.407-3.202-18.093-4.803-20.654-0.881-1.521-1.921-5.284-2.402-9.206-0.801-6.885-2.001-13.209-4.803-25.698-2.001-9.206-1.921-11.528 0.56-16.491 3.923-7.926 14.49-14.97 29.14-19.534 5.124-1.601 7.685-1.841 17.612-1.841 18.573 0.080 20.895 1.841 23.696 18.093 0.961 5.444 1.201 10.647 0.961 18.733-0.32 10.247-0.56 11.608-2.562 16.011-5.044 10.808-5.444 12.809-5.924 26.739-0.64 22.896 2.562 49.074 6.805 56.039 2.722 4.323 7.765 8.326 16.411 12.969 3.442 1.841 7.125 4.563 8.246 6.004 3.603 4.723 11.448 21.455 12.008 25.618 0.881 6.404 1.921 9.927 5.284 17.292 2.962 6.645 4.323 11.368 7.525 25.458 1.921 8.326 5.204 14.97 9.607 19.133 2.322 2.242 4.883 6.004 6.885 10.007 1.761 3.522 4.403 7.845 5.844 9.687 6.565 8.086 13.93 20.654 16.572 28.1 0.881 2.562 4.003 12.088 6.885 21.135 2.802 9.046 6.244 18.973 7.445 22.015 1.281 3.122 3.282 9.046 4.483 13.209 2.322 8.246 7.125 20.895 10.487 27.459 1.121 2.322 4.723 8.086 8.006 12.969 6.164 9.046 9.206 14.49 11.128 19.774 2.562 7.285 11.448 17.452 15.291 17.452 2.162 0 7.045-4.163 8.726-7.285 0.56-1.201 1.521-4.003 1.921-6.164 0.48-2.162 2.882-7.445 5.284-11.848 5.924-10.647 15.371-31.942 21.535-48.674 2.802-7.525 6.324-16.652 7.845-20.254 1.601-3.603 3.202-8.486 3.683-10.808 0.961-5.444 4.403-15.371 9.527-27.539 5.204-12.489 6.004-15.291 8.966-29.781 1.281-6.645 4.163-17.452 6.324-24.017 3.122-9.126 4.643-15.611 6.805-28.98 3.522-21.375 5.044-27.379 9.767-38.587 4.083-9.527 6.404-12.809 12.729-17.452 4.723-3.522 7.045-7.685 8.806-15.931 2.322-11.208 1.361-24.737-3.282-46.272-3.282-15.291-2.162-25.938 3.042-29.38 0.961-0.64 4.803-2.482 8.486-4.083 5.924-2.562 8.006-3.042 18.573-4.083 17.372-1.601 28.1-5.364 38.747-13.449 5.764-4.323 14.090-7.205 24.177-8.486 11.288-1.441 19.293 0.32 33.543 7.285 16.331 7.926 22.336 15.531 18.413 23.056-2.642 5.204-14.33 12.809-26.819 17.532-13.209 4.883-16.171 6.244-22.015 10.167-8.006 5.364-25.458 21.135-30.421 27.539-4.563 5.924-6.164 9.607-8.886 19.774-2.482 9.046-2.962 20.814-1.281 26.579 0.721 2.242 2.722 5.204 6.084 8.806l5.124 5.364-0.721 40.828c-0.881 50.515-1.761 62.524-5.284 69.568-0.64 1.201-3.282 4.483-5.844 7.285-2.562 2.722-5.124 5.844-5.684 6.885-0.881 1.441-1.201 7.525-1.521 24.737l-0.4 22.816-2.482 4.003c-7.045 11.608-14.25 35.705-15.531 52.116-0.48 6.164-1.201 10.247-2.402 13.049-1.921 4.403-2.001 3.843 2.081 13.609 2.962 7.205 2.402 10.647-3.603 25.137-2.722 6.404-4.883 12.008-4.883 12.409 0 0.48 1.281 2.482 2.802 4.483 1.521 2.081 2.802 4.403 2.802 5.204 0 0.881-7.205 10.567-15.931 21.615l-15.931 20.014-0.48 6.645c-0.24 3.683-0.801 13.85-1.281 22.656-0.961 18.173-2.242 26.338-4.803 32.022l-1.841 4.003 2.642 10.007c1.441 5.524 3.442 14.49 4.403 20.014 1.041 5.524 2.962 14.65 4.323 20.414 3.683 14.81 4.003 16.491 6.004 28.020 2.242 12.329 3.683 16.411 6.004 16.411 1.201 0 2.242-1.201 3.763-4.163 1.441-2.962 5.524-7.685 13.049-15.131 8.966-8.886 11.928-11.368 16.411-13.529 3.042-1.441 7.045-3.923 8.806-5.524 4.963-4.563 7.605-6.084 13.69-8.326 3.122-1.121 10.007-4.003 15.371-6.485 18.893-8.646 28.58-11.048 44.671-11.128 10.888-0.080 19.454 0.881 26.819 3.042 6.164 1.761 16.812 7.525 20.895 11.368 3.923 3.603 29.22 35.305 36.105 45.071 5.044 7.205 6.725 10.808 8.326 17.692 0.721 3.282 2.482 10.087 4.003 15.131 3.202 11.208 4.563 17.292 6.244 27.219 2.402 14.33 2.962 19.614 3.683 36.425 1.041 24.017 2.642 28.98 11.688 35.705 2.562 1.921 4.963 4.403 5.604 5.924 1.281 3.122 3.042 11.768 4.323 21.215 1.041 7.845 0.64 9.367-3.603 14.97-3.362 4.323-3.362 5.204-0.881 10.647 2.562 5.524 1.921 6.805-5.684 12.088-7.045 4.803-8.566 6.885-7.525 9.687s2.242 3.122 14.49 3.843c11.288 0.721 14.49 1.441 17.292 4.083 3.683 3.442 20.014 3.603 109.436 1.041l17.372-0.48v14.010l-20.975-0.48c-73.971-1.841-103.912-1.521-122.325 1.441-9.767 1.521-10.888 2.242-14.010 8.486-2.402 4.723-3.122 5.444-6.805 7.045-4.483 1.921-9.527 2.322-19.614 1.281-5.924-0.56-6.805-0.4-11.048 1.521-10.007 4.403-13.289 8.886-15.050 20.334-0.56 3.603-1.201 6.805-1.441 7.205-0.32 0.48-24.017 0.48-60.522 0.080-32.983-0.32-62.283-0.64-65.005-0.64l-5.044-0.080v-15.771l19.053-0.56c25.698-0.721 37.386-1.761 40.989-3.522 5.444-2.882 15.611-17.692 13.529-19.774-1.921-1.921-60.522-1.041-79.896 1.201-10.007 1.121-10.567 2.402-4.403 9.447 1.921 2.162 3.522 4.243 3.522 4.563 0 0.24-1.681 2.562-3.683 5.044-5.524 6.725-5.844 7.845-5.684 20.975 0.080 12.008-0.64 16.491-4.323 28.020-3.843 11.928-10.487 24.657-15.851 30.661-6.004 6.645-22.015 11.848-37.706 12.168-5.044 0.16-10.487 0.080-12.008-0.080zM655.246 869.047c1.361-0.48 3.522-1.921 4.803-3.202 1.361-1.201 4.483-3.522 6.965-5.124 5.364-3.362 7.045-5.524 7.045-8.886 0-3.202-2.482-5.524-7.205-6.885-5.284-1.521-37.946-1.521-41.469 0-4.563 1.921-16.171 17.772-16.171 22.175 0 1.361 2.402 2.081 9.206 2.802 7.845 0.881 33.944 0.24 36.826-0.881zM692.712 811.567c2.242-2.322 1.281-5.284-4.403-14.010-2.722-4.003-5.684-9.206-6.725-11.448-2.162-4.963-7.525-10.888-18.653-20.654-17.052-14.97-31.942-23.777-40.588-24.017-6.485-0.16-6.885 0.881-2.562 7.285 12.329 18.573 40.668 50.515 51.796 58.521 8.886 6.404 17.292 8.086 21.135 4.323zM647.32 809.326c5.604-1.521 7.926-3.442 7.285-6.084-1.681-6.565-39.708-50.595-46.592-53.797-3.362-1.601-7.926-1.681-9.206-0.080-2.562 3.042 2.322 14.41 8.406 19.454 0.64 0.56 1.201 1.921 1.201 3.042 0 2.562 0.961 4.403 4.003 7.365 2.242 2.242 2.402 2.882 2.402 8.086 0 6.645 0.24 6.885 8.966 7.685 6.725 0.64 7.445 1.441 6.725 7.445-0.801 7.205 1.361 9.046 9.527 8.326 1.761-0.16 5.044-0.801 7.285-1.441zM558.058 808.205c2.322-1.281 1.841-3.603-1.441-7.285-7.365-8.166-24.417-16.411-27.859-13.529-4.003 3.362 2.482 13.289 10.007 15.211 2.001 0.48 5.204 1.921 7.205 3.202 2.001 1.201 4.163 2.402 4.803 2.642 2.001 0.721 5.604 0.64 7.285-0.24zM696.074 707.895c5.364-5.364 5.684-17.532 1.041-40.188-5.204-25.618-15.611-51.316-26.659-66.366-2.882-3.843-5.204-7.525-5.204-8.086s-2.242-3.522-5.044-6.565c-5.924-6.485-8.566-10.087-8.566-11.688 0-1.921-6.324-7.845-10.247-9.527-5.684-2.562-16.171-2.802-26.418-0.721-12.889 2.722-23.696 6.725-46.272 17.132-6.244 2.882-14.33 6.324-18.013 7.605-6.164 2.162-9.126 2.882-23.937 5.924-2.882 0.56-8.086 2.482-11.608 4.243-5.924 2.962-6.805 3.763-11.848 10.407-2.962 4.003-7.285 9.286-9.527 11.928-4.003 4.483-4.083 4.803-3.122 7.205 4.963 12.649 7.285 22.656 8.806 38.187 0.961 9.607 2.242 14.17 4.563 15.691 1.601 1.041 2.081 0.961 4.323-0.16 1.361-0.721 4.403-3.042 6.805-5.204 5.524-4.963 9.286-6.885 16.572-8.406 3.202-0.721 8.726-2.642 12.249-4.403 6.164-3.042 6.885-3.202 18.013-4.003 14.89-1.041 41.789-0.961 46.432 0.080 2.001 0.4 4.963 1.921 6.645 3.202 4.483 3.603 9.286 5.524 13.93 5.524 16.331 0.080 38.026 10.968 43.63 21.935 3.763 7.285 11.208 15.931 15.451 17.772 3.683 1.601 5.124 1.361 8.006-1.521z" />
<glyph unicode="&#xe901;" glyph-name="soldier-c" data-tags="soldier-c" d="M258.776 861.958c-9.285-2.481-14.808-5.043-22.012-10.166-5.683-4.002-13.607-12.167-16.729-17.049-3.762-6.003-12.167-23.453-14.728-30.577-5.123-14.328-6.243-16.969-7.604-17.77-0.88-0.48-3.202-0.48-6.323 0-4.803 0.72-5.043 0.64-6.564-1.281-0.961-1.121-2.962-3.362-4.562-4.883-1.521-1.601-4.322-4.883-6.083-7.284-3.442-4.643-6.964-8.164-13.287-13.127-2.161-1.761-4.723-4.002-5.763-5.043-2.001-2.241-6.403-3.202-23.213-5.443-5.283-0.64-10.726-1.601-12.087-2.081-1.601-0.48-5.523-4.002-10.566-9.445-7.044-7.524-8.885-9.045-14.328-11.686-3.442-1.601-8.325-3.282-10.886-3.602-3.282-0.48-5.603-1.441-8.084-3.362-1.921-1.441-6.884-5.203-11.046-8.325-8.325-6.323-15.528-14.728-21.612-25.374-4.643-8.004-19.931-42.343-21.852-48.987-0.72-2.561-2.161-6.403-3.202-8.405-0.961-2.001-3.362-7.524-5.203-12.407-1.921-4.803-4.803-10.566-6.403-12.807-6.884-9.125-6.804-8.965-6.564-29.216 0.32-20.651 0.16-20.011 7.924-28.335l5.203-5.443-0.4-13.367c-0.48-17.93-2.081-41.943-3.122-47.306-0.4-2.401-0.72-5.843-0.64-7.604 0.48-8.405 0.24-21.452-0.72-35.619-0.8-12.647-0.8-17.129 0-23.533 0.961-7.684 0.961-8.164-0.8-12.807-5.203-13.687-5.203-13.527-5.363-38.101-0.080-12.567-0.4-26.254-0.72-30.417-1.041-13.367 2.241-25.054 11.686-41.383 5.523-9.525 7.284-11.846 17.289-22.492 4.803-5.043 9.045-9.925 9.525-10.726 0.56-1.041 0.56-3.282 0.080-6.884-1.121-8.084-0.24-25.454 1.441-29.296 1.121-2.721 1.201-3.842 0.4-7.604-1.041-5.043-0.080-16.089 1.601-18.090 0.56-0.64 3.682-2.882 6.884-4.963l5.923-3.682v-8.885c-0.080-12.807-1.281-24.493-2.721-27.455-0.88-1.521-1.521-5.523-1.761-10.406-0.48-7.604-0.4-7.924 1.681-11.046 3.122-4.402 4.402-7.844 4.402-11.286 0-2.561 0.64-3.522 4.643-7.284 2.481-2.321 6.724-5.283 9.365-6.564s6.083-3.282 7.604-4.402c3.842-2.962 11.766-5.203 20.891-6.083 4.162-0.4 9.045-0.961 10.806-1.201 1.841-0.32 5.363 0 8.565 0.72 3.042 0.72 6.964 1.281 8.805 1.281 3.682 0 9.685 1.441 14.328 3.442 4.803 2.001 4.803 3.602 0.16 16.969-1.841 5.203-4.562 9.445-7.364 11.286-2.481 1.681-4.242 2.081-15.048 3.122-4.162 0.48-5.043 0.8-5.843 2.481-0.48 1.041-1.761 2.401-2.882 2.882-1.921 0.88-2.081 1.201-1.521 4.162 0.64 4.082 1.681 6.083 3.122 6.083 1.921 0 6.003 4.002 6.644 6.644 0.4 1.601 1.841 3.362 4.242 4.963 2.321 1.601 4.322 4.002 5.763 6.884 2.962 5.763 6.323 8.485 9.205 7.364 1.681-0.56 2.802-0.4 4.963 0.64 8.965 4.402 10.646 4.562 14.408 1.121 1.601-1.441 3.362-1.921 8.405-2.401s6.884-0.961 8.645-2.481c1.281-1.041 2.561-1.921 2.802-1.921 0.32 0 3.682-0.48 7.604-1.121 5.923-0.961 7.444-1.601 10.166-3.922 3.442-2.882 6.884-4.162 10.566-3.842 2.401 0.16 9.365-3.202 11.526-5.603 1.921-2.161 0.961-5.843-3.762-13.607-5.283-8.725-10.566-19.291-12.167-24.333-2.401-7.364-4.562-20.171-4.562-26.655 0-3.602-0.48-7.844-1.201-9.765-0.64-1.921-1.201-6.163-1.201-9.605v-6.243l3.682-3.282c4.162-3.682 11.846-6.484 17.53-6.484 2.241 0 4.963-0.8 8.004-2.401 5.923-3.122 12.167-3.202 24.974-0.32 5.603 1.281 10.406 1.921 12.087 1.601 3.762-0.56 14.488-5.683 16.969-8.084 3.202-3.122 8.725-5.043 16.809-5.923 4.162-0.48 10.166-1.281 13.207-1.761 14.488-2.081 72.44-1.521 86.767 0.88 6.083 0.961 12.807 3.842 15.689 6.724 2.321 2.321 2.641 6.323 0.8 8.805-0.64 0.88-1.201 2.721-1.201 4.002-0.16 6.484-6.083 16.569-11.046 18.65-1.601 0.72-6.564 1.841-10.966 2.641-5.283 0.88-10.886 2.561-16.409 4.963-9.045 3.842-15.689 7.604-14.808 8.485 0.32 0.32 12.807 0.56 27.855 0.56 33.618 0 35.059 0.24 50.348 8.885 10.005 5.603 11.846 7.924 15.368 19.050 6.323 19.931 7.124 26.494 4.482 36.9-2.802 10.886-6.083 15.689-28.095 40.902-22.732 26.014-48.426 50.027-74.281 69.638-10.246 7.764-11.686 9.125-11.927 11.366-0.24 2.081 5.203 26.334 9.045 40.582 0.56 2.241 2.001 8.325 3.202 13.607 2.721 11.927 4.082 17.209 9.125 34.419 2.161 7.524 4.723 17.369 5.683 22.012 1.841 8.405 3.442 14.648 6.083 23.533 1.281 4.242 1.361 5.843 0.48 18.41-1.681 22.812-2.561 25.214-13.367 36.1-6.003 5.923-14.248 10.726-21.212 12.327-6.003 1.361-19.611 1.041-28.255-0.72-4.402-0.88-8.164-1.761-8.485-2.001-0.32-0.16-2.161-0.64-4.002-1.121-5.283-1.201-5.043 0.64 1.121 7.284 11.446 12.407 17.85 21.692 28.335 41.463 4.082 7.764 7.124 12.327 10.726 16.089 2.721 2.962 6.003 6.884 7.204 8.725 2.161 3.282 2.401 3.362 5.603 3.042 1.841-0.24 8.565-2.161 14.968-4.402 6.403-2.161 14.488-4.883 18.010-6.003s9.445-3.202 13.207-4.482c3.762-1.361 10.566-3.442 15.128-4.562s10.406-2.962 12.967-4.002c2.561-1.041 6.564-2.241 8.885-2.721 2.321-0.56 6.323-1.681 8.885-2.641 3.922-1.441 5.603-1.601 11.606-1.121 3.842 0.32 11.446 0.88 16.969 1.201 5.523 0.4 11.446 1.121 13.207 1.681s9.365 4.002 16.889 7.684l13.687 6.644 11.446 11.606c6.243 6.403 12.087 12.807 13.047 14.248 2.721 4.562 15.048 16.169 23.213 21.772 8.485 5.843 10.726 8.405 12.967 14.408 0.72 2.081 2.962 5.603 4.883 7.764 4.482 5.043 5.443 6.964 7.124 14.328 0.8 3.282 1.601 7.044 1.921 8.405 0.56 2.321 0.72 2.401 7.764 3.362 15.288 2.161 20.251 2.641 29.056 2.641 8.645 0 9.205 0.080 10.966 2.001 1.041 1.121 2.721 2.001 3.842 2.001 2.962 0 5.443 1.121 8.485 4.002 1.521 1.361 4.803 3.602 7.364 4.883l4.643 2.321 4.963-1.601c2.721-0.88 6.243-1.601 7.924-1.601 2.802 0 3.522 0.56 8.725 6.484 3.122 3.522 6.083 7.284 6.564 8.325 1.121 2.561 3.762 3.362 11.846 3.922 9.125 0.56 13.607 2.241 18.010 6.724 2.001 2.001 3.602 3.922 3.602 4.322 0 1.041 24.974 0.72 104.057-1.361 41.142-1.041 92.13-2.321 113.262-2.802s41.223-1.201 44.664-1.521c7.284-0.64 7.764-0.32 7.764 5.843v3.682h13.928c15.609 0 14.888-0.24 14.888 6.003 0 3.922-0.080 3.922-7.364 4.803-4.162 0.48-4.723 0.8-6.243 3.362-1.361 2.321-1.841 2.641-2.802 1.841-0.64-0.56-1.201-1.441-1.201-2.081 0-2.721-2.641-2.882-37.861-1.921-19.050 0.48-50.988 1.361-70.999 2.001-89.409 2.882-148.001 4.482-213.317 6.003-50.107 1.121-51.388 1.201-53.069 2.561-1.121 0.961-5.523 1.041-29.776 0.56-27.215-0.56-28.576-0.56-31.457 0.961-4.322 2.241-14.408 2.161-16.329-0.080-1.281-1.521-2.401-1.601-14.808-1.601-12.727 0-13.527 0.080-15.208 1.761-1.441 1.441-3.042 1.841-9.365 2.321-13.127 0.961-74.761 2.641-77.082 2.081-1.521-0.4-2.241-1.121-2.241-2.241 0-1.441-0.32-1.601-2.401-1.121-2.962 0.64-9.925-0.88-11.286-2.481-0.48-0.64-1.121-2.241-1.441-3.682-0.4-2.081-1.281-2.962-4.482-4.482-7.284-3.682-10.406-3.442-21.692 1.921-6.163 2.882-8.965 2.561-14.008-1.601-5.923-4.803-15.288-10.886-16.089-10.406-0.32 0.24-0.64 1.041-0.64 1.841 0 0.72-1.281 6.243-2.802 12.167s-2.802 11.126-2.802 11.606c0 0.64 2.641 1.041 7.444 1.281 11.286 0.48 19.691 4.803 21.372 10.966 0.961 3.682-1.441 9.285-6.644 15.128-2.001 2.241-4.082 5.443-4.643 7.124-0.48 1.681-1.201 11.606-1.521 22.252-1.041 30.337-3.842 39.462-17.369 56.191-10.646 13.207-23.533 23.453-38.341 30.337-15.208 7.204-22.893 9.125-39.141 9.605-10.406 0.32-11.766 0.24-19.611-1.921zM535.727 656.966c0-1.201-3.842-3.922-6.644-4.803-1.441-0.4-6.163-1.361-10.566-2.081-5.683-0.961-9.285-2.081-12.327-3.762-2.401-1.281-7.844-3.282-12.007-4.242-4.242-1.041-11.046-3.042-15.128-4.482-8.325-2.802-10.166-2.481-7.604 1.361 0.8 1.201 2.561 4.402 3.842 7.044 2.481 4.963 3.282 5.683 11.206 9.045 1.761 0.72 4.082 1.601 5.203 1.921 3.122 0.8 44.024 0.8 44.024 0zM470.972 653.524c2.481-4.082 1.601-9.685-2.081-13.447l-2.802-2.802h-8.645c-9.685 0-12.807 0.88-14.808 4.322-2.641 4.562-2.561 4.562 12.087 2.802 3.762-0.4 4.562-0.24 7.524 1.761 3.282 2.241 4.162 3.602 4.963 7.764 0.64 2.882 1.761 2.721 3.762-0.4zM435.512 648.321c0.961-1.201 3.122-4.402 4.723-6.964 2.802-4.482 2.802-4.803 1.441-5.763-0.8-0.64-3.042-1.121-4.883-1.121s-4.643-0.56-6.163-1.201c-5.603-2.321-12.567-0.961-12.567 2.401 0 1.041 0.56 2.241 1.201 2.802s2.882 3.682 4.963 6.964c3.762 5.923 3.842 6.003 6.644 5.523 1.681-0.24 3.522-1.281 4.643-2.641z" />
<glyph unicode="&#xe902;" glyph-name="agenda" data-tags="agenda" d="M843.294 839.529v120.471h-783.059v-1024h783.059v120.471h120.471v783.059h-120.471zM120.471-3.765v903.529h120.471v-903.529h-120.471zM783.059-3.765h-481.882v903.529h481.882v-903.529zM903.529 116.706h-60.235v180.706h60.235v-180.706zM903.529 357.647h-60.235v180.706h60.235v-180.706zM843.294 598.588v180.706h60.235v-180.706h-60.235zM361.412 719.059h301.176v-60.235h-301.176v60.235zM361.412 598.588h240.941v-60.235h-240.941v60.235z" />
<glyph unicode="&#xe903;" glyph-name="soldier-e" data-tags="soldier-e" d="M557.295 958.35c-3.921-1.44-7.282-2.001-11.204-2.001-3.121 0-11.044-0.56-17.686-1.2-10.724-1.12-28.57-2.561-47.376-4.001-5.842-0.48-6.962-0.8-10.163-3.281-2.001-1.521-4.161-2.721-4.802-2.721-0.72 0-2.561-2.001-4.161-4.402s-3.521-4.402-4.241-4.482c-0.72 0-0.88-0.24-0.32-0.4 0.64-0.32 0-1.761-1.761-4.241l-2.801-3.841v-62.821l-7.923-10.163c-4.402-5.682-9.043-12.004-10.404-14.165-1.36-2.081-4.562-6.162-7.042-8.963-6.962-7.923-7.202-8.643-6.322-18.486l0.8-8.323 9.923-4.802 9.923-4.722 17.446 1.12-0.48-5.842c-0.32-3.281-0.8-6.002-1.12-6.162-1.28-0.56 0.56-20.567 2.481-25.449 0.48-1.28 1.761-6.482 2.801-11.524 5.282-24.328 14.405-46.256 25.929-62.101l6.882-9.523 7.523-2.001 7.603-2.081-0.24-5.522c-0.32-6.962-1.28-7.923-12.484-12.004l-8.083-2.961-8.403-11.764c-10.404-14.485-11.284-15.445-25.769-28.65-8.483-7.763-12.724-11.044-15.205-11.844-1.921-0.64-20.007-5.682-40.254-11.284-20.247-5.522-37.533-10.564-38.413-11.124s-8.083-6.082-15.925-12.404l-14.405-11.444-11.604-4.001c-6.402-2.161-12.404-4.642-13.285-5.362-2.081-1.761-15.605-9.123-16.005-8.643-0.16 0.16 3.761 6.082 8.803 13.044l9.043 12.804 17.446 12.404c9.523 6.802 17.766 12.644 18.166 12.964 0.56 0.32-2.001 4.321-6.482 10.244l-7.443 9.603 8.323 11.444c7.122 9.683 9.123 13.205 13.765 23.768 5.842 13.285 5.282 12.644 18.486 24.808l5.682 5.202 1.44 8.243 1.521 8.243-13.285 13.285 14.565 13.925c8.803 8.483 17.126 17.286 21.287 22.648l6.722 8.643v5.762c0 10.003 1.761 16.726 5.922 22.808 2.481 3.601 3.681 6.162 3.681 7.923 0 1.841 0.8 3.441 2.881 5.762l2.881 3.201-2.561 3.201c-1.44 1.841-2.401 3.521-2.081 3.761 0.32 0.32-0.88 1.12-2.481 1.921-6.002 2.641-6.322 2.641-9.123-0.8-1.36-1.841-3.121-3.441-3.841-3.681-0.8-0.24-3.601-3.441-6.402-7.202-6.482-8.723-37.613-39.133-48.016-46.896-4.402-3.281-12.884-8.483-18.966-11.524l-10.964-5.682-13.285-23.608c-7.523-13.445-15.605-26.729-18.646-30.65l-5.362-7.042-0.56 3.281c-0.32 1.841-0.64 3.281-0.8 3.281s-5.442-4.402-11.684-9.843c-22.248-19.127-35.052-28.89-47.456-36.092-6.562-3.921-12.484-7.443-13.124-7.923-0.56-0.56-4.802-1.28-9.443-1.761-8.003-0.88-8.403-0.8-11.524 0.96l-3.201 1.761-3.601-2.721c-2.721-2.081-4.402-2.801-6.802-2.801h-3.121l-8.723-17.766-8.643-17.846-8.323-6.482c-4.562-3.521-15.445-11.764-24.088-18.246-15.765-11.844-15.845-11.844-22.568-21.367l-6.802-9.523-2.081-14.325c-1.761-12.564-2.001-17.206-2.001-36.252v-21.847l-4.802-16.886-4.882-16.886 1.28-15.125c1.28-16.166 7.443-50.257 9.363-51.938 7.282-6.482 14.965-12.484 20.487-16.005 0.64-0.4 5.762-3.681 11.284-7.282l10.083-6.402 29.61-3.841c28.010-3.601 30.090-4.001 38.413-7.042 4.882-1.841 10.163-3.921 11.764-4.722 3.441-1.761 6.722-1.36 20.647 2.561 4.642 1.28 16.726 3.921 26.809 5.922 18.566 3.601 23.288 5.042 62.261 19.287 2.321 0.8 3.121 0.88 3.281 0.080 0.16-0.56 1.12-21.287 2.001-46.176 0.96-24.889 3.201-69.624 4.882-99.474l3.201-54.339-2.001-25.689c-2.081-26.729-2.801-34.172-4.722-44.975-1.12-6.242-1.040-6.402 0.64-7.523 0.88-0.64 4.241-3.681 7.443-6.802l5.682-5.682-3.521-35.452-3.601-35.452 1.681-2.401c1.841-2.481 1.841-5.522 0.32-22.888l-0.48-5.042h20.167c11.524 0 19.927-0.32 19.687-0.72-0.64-0.96 10.083-0.56 11.524 0.4 0.72 0.4 38.093 0.8 94.272 0.96 83.549 0.24 92.992 0.080 92.992-1.040 0-1.040 8.803-1.2 85.629-1.2 85.069 0 85.629 0 85.629 1.601 0 1.521 0.56 1.601 20.407 1.601 20.007 0 20.407 0 20.407-1.601 0-1.44 0.4-1.601 2.641-1.2 15.365 2.641 19.527 2.801 65.702 2.801 25.769 0 46.976 0.32 47.216 0.64 0.4 0.72 10.724 47.456 12.804 58.18 1.841 9.283 12.004 87.55 15.285 118.040l2.881 26.009-0.96 17.206-0.88 17.206 4.081 23.208c2.241 12.804 5.682 36.813 7.683 53.458l3.681 30.17-2.881 22.008c-2.641 21.047-2.801 23.128-2.801 46.816 0 24.568-0.080 25.289-4.001 60.421l-4.001 35.532-12.084 23.048c-6.722 12.644-16.246 30.17-21.287 38.813l-9.043 15.765-5.602 18.486c-3.041 10.163-5.762 18.806-6.002 19.207-0.24 0.32-5.282 3.441-11.284 6.962-9.683 5.522-11.684 7.042-17.446 13.365l-6.482 7.042-98.434 49.297-4.562 9.203-4.482 9.123-19.527 14.405c-14.405 10.644-20.407 14.645-23.048 15.285-2.001 0.48-10.724 2.401-19.367 4.241l-15.845 3.361-0.88 3.281c-0.48 1.841-1.681 6.562-2.801 10.564-1.521 5.842-2.321 12.404-3.761 32.251l-1.841 25.049 5.762 8.563c5.442 8.163 5.842 9.043 7.843 17.926 2.961 13.285 2.801 19.607-0.72 30.17-2.801 8.323-3.281 12.324-2.321 19.527 0.4 2.641 0.88 3.681 1.841 3.681s2.321 2.801 5.042 10.644l3.681 10.564-2.001 20.727-2.001 20.807-10.724 14.165c-10.564 14.085-10.724 14.245-19.687 20.407-4.962 3.361-10.083 6.482-11.444 6.802-7.523 2.161-28.33 5.442-58.020 9.123-1.761 0.24-4.882-0.4-8.323-1.601z" />
<glyph unicode="&#xe904;" glyph-name="soldier-d" data-tags="soldier-d" d="M324.943 891.666c-11.362-1.6-15.442-2.32-22.403-4.081-14.402-3.6-31.684-10.962-44.006-18.723-10.962-6.881-17.442-16.562-23.763-35.365-5.761-17.282-6.241-23.523-4.241-55.768 1.36-21.043 1.12-26.404-1.28-30.404-2.64-4.241-5.681-4.961-24.323-5.681-10.721-0.4-18.163-1.040-20.563-1.76-4.801-1.52-11.682-5.361-17.842-10.001-8.561-6.481-27.924-22.803-32.084-27.044-10.962-11.202-22.963-30.724-28.004-45.606-3.28-9.921-2.64-21.763 2.080-38.325 2.64-9.201 2.24-12.802-2.48-23.523-10.321-23.203-20.163-58.648-26.404-95.133-2.24-12.962-2.4-15.282-2.080-27.124 0.32-10.081 0.16-13.202-0.64-13.842-1.28-1.12-12.962-1.2-15.682-0.080-2 0.72-2.88 2.24-4.721 8.161-0.48 1.6-1.52 3.52-2.32 4.241-1.84 1.68-8.481 2.88-15.842 2.88-7.121 0-8.641-1.12-11.442-8.481-1.52-3.761-1.92-6.641-2.080-13.682-0.16-4.961-0.64-9.681-1.040-10.481-0.48-0.88-1.84-2-3.12-2.48-2.88-1.2-6.321-5.841-10.481-14.162-10.321-20.803-12.882-34.805-7.281-39.926 2-1.84 2.080-5.121 0.16-10.882-1.040-3.44-1.36-7.041-1.28-17.522 0-18.963 2.080-29.844 7.201-37.685 1.52-2.4 5.201-8.561 8.161-13.842 5.201-9.201 10.641-15.842 14.642-17.842 1.040-0.56 5.281-2.4 9.441-4.161 8.881-3.761 18.963-9.761 23.363-13.762 2.32-2.16 3.12-3.52 3.12-5.361 0-1.52-3.040-8.401-8.001-18.323-4.321-8.641-7.681-16.002-7.281-16.242 0.32-0.24 3.040-2.16 6.001-4.401 8.881-6.561 14.642-16.962 15.522-27.844 0.32-4.881 0.16-5.921-2.16-10.962-1.44-3.040-3.841-10.561-5.361-16.802-1.6-6.641-4.081-14.242-6.161-18.643l-3.36-7.361 0.080-16.002c0-12.242 0.48-18.563 1.76-27.124 4.081-25.604 10.561-49.127 17.042-61.208 4.721-8.721 32.244-29.124 44.646-32.965 10.161-3.12 35.205-2.88 48.887 0.56 15.202 3.761 31.204 15.842 35.205 26.564 0.96 2.48 5.121 9.681 9.281 16.082 9.121 13.922 13.522 22.883 18.243 37.125 4.241 12.722 6.881 24.403 9.681 42.566 6.321 41.046 16.322 73.21 22.723 73.21 8.001 0 56.888 24.003 79.291 38.885 14.562 9.681 36.565 27.924 61.208 50.727 14.722 13.682 26.724 24.003 27.764 24.003 0.72 0 0.8 0.16-3.44-17.042-5.841-23.443-8.561-46.326-7.601-64.569 0.56-12.002 1.44-15.602 4.721-19.043 2.16-2.16 2.56-3.28 2.8-7.601 0.56-8.721-4.481-39.525-8.241-49.927-9.041-25.524-10.801-32.965-10.801-46.406 0-14.642 3.2-17.362 25.203-21.443 9.281-1.76 19.043-5.041 32.004-10.801 26.804-12.002 51.367-17.762 76.010-17.922 14.322-0.080 21.043 1.2 25.844 4.801 3.921 3.040 4.641 5.601 2.64 9.681-3.36 6.961-13.682 15.522-19.923 16.642-4.481 0.72-12.562 7.121-26.564 21.203-13.922 13.922-21.363 23.283-24.003 30.164-2.080 5.441-3.36 15.762-3.44 27.044 0 13.362 5.201 27.364 14.242 38.485 12.562 15.362 23.603 51.607 31.524 103.934 5.121 33.925 7.361 60.488 9.361 112.015 0.72 18.483 1.36 33.685 1.44 33.765s5.201 1.52 11.282 3.040c18.002 4.721 31.524 10.641 45.686 20.003 14.242 9.521 18.403 14.962 25.924 33.685 6.161 15.282 13.042 28.964 26.964 53.527 15.442 27.284 19.443 35.765 19.443 41.446 0 7.041 10.721 21.123 26.564 34.565 10.561 9.041 20.403 15.842 38.645 26.564l13.602 8.001 26.804 0.56c14.722 0.32 29.364 0.8 32.404 1.040 5.041 0.48 5.361 0.56 2.8 1.12-1.52 0.32-6.641 1.040-11.442 1.6-4.721 0.56-8.321 1.28-8.001 1.6 0.4 0.32 4.641 1.36 9.521 2.32 7.121 1.36 11.122 1.68 19.843 1.44l10.962-0.24 4.161 4.481c2.32 2.4 5.601 6.001 7.361 7.841 4.401 4.881 7.361 5.921 14.322 5.201 8.721-0.88 14.082-0.56 15.762 0.96 2.8 2.56 13.202 2.88 73.37 2.4 32.244-0.32 59.688-0.72 61.048-1.040l2.48-0.48-0.24 10.801c-0.4 12.802-1.28 15.042-6.161 15.042-1.6 0-4.961-0.96-7.361-2.080-3.6-1.68-6.641-2.24-17.202-3.2-14.642-1.28-60.328-2.72-86.492-2.72h-17.602l-1.36 14.642c-2.24 24.083-4.641 29.444-11.522 25.924-3.28-1.76-11.442-10.641-20.083-21.843l-7.361-9.681-14.562-0.48c-8.001-0.32-62.329-0.56-120.817-0.56h-106.255v6.721c0 6.161-0.16 6.961-2.080 9.281-4.961 5.841-15.842 7.841-75.93 13.922-19.363 2-37.685 3.841-40.806 4.081l-5.601 0.48-4.081-5.041c-5.761-7.041-10.161-14.082-12.322-19.603-2.56-6.481-4.401-8.801-8.241-10.721-4.561-2.32-6.801-4.481-7.361-7.281-0.96-4.081-3.6-5.041-14.002-5.041-11.602 0-13.682 1.040-18.563 9.441-1.76 3.2-5.041 7.601-7.121 9.921-2.16 2.24-3.921 4.321-3.921 4.561s-0.56 2.48-1.2 5.041c-1.6 5.921-3.6 24.643-3.040 27.844 0.64 3.6 2.24 4.881 7.681 6.401 13.442 3.761 14.722 6.881 8.961 22.083-2.56 6.641-23.363 48.167-29.044 57.848-5.601 9.521-11.762 15.362-20.963 19.843-10.161 5.041-18.563 6.961-31.604 7.361-5.681 0.24-11.442 0.24-12.802 0zM876.859 749.807c0.8-2.32 1.84-6.961 2.32-10.241 0.88-5.601 0.88-6.081-0.56-7.121-1.92-1.44-14.002-1.44-17.922-0.080-6.321 2.24-5.361 5.761 3.841 15.122 8.561 8.721 10.081 9.041 12.322 2.32zM591.86 750.527c5.361-1.28 7.281-3.6 6.961-8.481-0.16-3.28-0.56-4.081-2.24-4.881-4.321-2-22.003-2.96-54.808-3.040-37.845 0-36.885-0.16-36.165 5.921 1.040 8.481 3.44 10.401 14.162 11.362 10.001 0.88 67.689 0.16 72.090-0.88zM674.911 676.196c0.96-0.64 1.040-1.28 0.24-4.001-1.92-6.241-10.481-16.242-34.485-40.086-42.646-42.486-53.207-50.087-80.971-58.728-14.242-4.401-20.883-5.681-25.684-4.961-8.401 1.28-31.684 18.723-35.845 26.884-2.4 4.801-2 8.561 2 18.723 2.48 6.401 3.761 10.962 4.321 15.682 0.4 3.6 1.12 6.961 1.52 7.361 1.6 1.6 7.041 1.92 19.363 1.36 6.801-0.32 13.922-0.64 15.682-0.64l3.36-0.080 0.56-12.562c0.32-6.961 0.8-15.522 1.12-19.123l0.48-6.401 23.043 4.961c12.642 2.72 23.203 5.041 23.363 5.281 0.16 0.16 0.8 9.521 1.28 20.803l0.96 20.563 20.483 8.321c29.284 12.082 45.446 17.122 54.488 17.282 2 0 4.081-0.24 4.721-0.64zM536.252 661.234c4.081-2.72 5.521-8.561 3.12-13.042-2.16-4.321-13.042-7.681-14.322-4.481-0.96 2.64-2.32 14.562-1.84 16.562 0.32 1.28 1.28 2.24 2.4 2.48 2.96 0.72 8.481-0.16 10.641-1.52zM418.476 512.094c12.482-7.281 31.684-21.683 31.684-23.683s-14.962-11.602-37.845-24.243c-4.001-2.16-4.641-2.32-5.121-1.2-0.72 1.84 0.32 35.765 1.36 42.326 1.76 11.842 1.52 11.682 9.921 6.801zM67.548 449.045c0.4-2.48-4.561-7.361-7.361-7.361-3.6 0-2.080 5.121 2.4 8.081 2.88 1.92 4.641 1.68 4.961-0.72z" />
<glyph unicode="&#xe905;" glyph-name="soldier-b" data-tags="soldier-b" d="M423.594 958.479c-2.4-0.8-6.401-2.080-8.801-2.8-2.4-0.8-6.961-2.64-10.162-4.081-6.321-2.96-7.521-3.201-9.842-1.76-2.56 1.6-5.041-0.24-16.803-12.562-1.12-1.12-5.441-5.361-9.682-9.442-8.801-8.481-16.243-18.083-17.123-22.164-0.32-1.52-1.36-4.321-2.24-6.161-1.44-2.88-1.52-3.601-0.56-5.841 0.56-1.36 2.32-3.441 3.841-4.641 2.24-1.68 3.521-2.080 7.121-2 3.040 0.080 4.481-0.24 4.801-0.96 0.16-0.64-0.56-3.921-1.68-7.361s-2.080-6.721-2.080-7.361c0-0.56 1.28-3.201 2.8-5.761 2.16-3.441 2.8-5.441 2.72-7.681-0.16-2.4 0.4-3.921 2.64-7.041 2.72-3.921 2.88-4.001 6.401-3.761 4.241 0.32 5.121-0.48 5.601-5.441 0.24-2 1.28-5.361 2.24-7.601 1.2-2.48 2-6.001 2.24-9.201 0.24-4.401 0.080-5.521-1.44-7.361-0.96-1.28-2.24-2.24-2.96-2.24-1.040 0-5.441-2-9.041-4.081-5.521-3.281-6.081-3.121-16.003 3.521-4.161 2.8-9.442 6.001-11.602 7.201-4.401 2.32-12.402 4.561-16.323 4.561-1.28 0-4.321 0.8-6.641 1.76-3.281 1.28-5.841 1.68-11.442 1.68-3.921-0.080-7.681 0.32-8.161 0.72-0.56 0.48-4.881 1.28-9.602 1.92-4.801 0.64-12.242 1.6-16.643 2.16-4.481 0.56-9.201 0.8-10.802 0.4-13.282-2.8-18.643-4.401-27.124-7.841-5.361-2.16-11.522-5.041-13.762-6.321-2.16-1.36-6.161-3.201-8.881-4.161-6.241-2.080-16.803-9.121-19.283-12.802-1.36-2-2.64-2.88-4.961-3.361-1.76-0.32-5.441-1.2-8.161-1.76-2.72-0.64-5.841-1.2-7.041-1.2-3.441 0-6.481-2.080-10.482-7.281l-3.681-4.881 1.68-5.681c2.16-7.281 2.16-11.602-0.080-16.163-1.68-3.441-1.68-3.681-0.4-6.401 1.84-3.841 1.68-5.121-0.56-6.001-3.761-1.44-4.561-5.441-2.48-12.562 0.96-3.201 1.68-4.161 3.201-4.561 2.8-0.72 3.521-4.001 1.28-6.401-1.12-1.2-1.68-2.8-1.68-4.961 0-1.76-0.56-3.921-1.2-4.801-0.64-0.8-1.2-2.32-1.2-3.201 0-0.96-1.040-2.96-2.24-4.561-2-2.48-2.4-3.761-2.8-9.842-0.32-4.641-0.24-7.361 0.4-8.081 0.48-0.56 2.8-1.6 5.121-2.32 3.441-0.96 4.401-1.6 4.801-3.281 0.64-2.4-0.080-22.404-0.88-24.404-0.32-0.72-1.68-1.6-3.040-1.84-4.321-0.96-6.161-2.56-6.161-5.441 0.080-3.441 1.92-10.722 3.601-13.922 0.88-1.76 1.44-5.441 1.76-11.202 0.4-8.081 0.24-8.881-1.52-12.242-1.36-2.48-1.84-4.481-1.68-6.401 0.32-2.64 0.16-2.88-3.281-4.561-2.32-1.12-3.681-2.32-3.681-3.201 0-3.040 1.76-11.842 2.48-12.722 0.48-0.56 2.32-1.28 4.161-1.52 4.321-0.72 8.481-3.281 9.041-5.521 0.24-1.040 0.32-7.601 0.16-14.642l-0.24-12.802-2.64-4.161c-2.88-4.721-4.241-11.442-3.601-18.243 0.24-2.56 0.16-4.241-0.32-4.241s-2.16-2.96-3.841-6.561c-4.961-10.802-3.921-16.723 4.001-23.444 2.64-2.32 5.041-5.121 5.761-6.961 1.44-3.601 7.281-9.041 11.922-11.122 1.84-0.8 7.921-2.48 13.602-3.601 9.602-1.92 11.122-2 21.924-1.44 13.202 0.72 20.323 0.8 42.407 0.16l15.603-0.48 2.32-3.361c3.921-5.681 14.562-12.722 25.684-16.883 2.8-1.040 4.401-2.080 4.401-2.88 0-0.72-1.68-4.721-3.681-8.801-3.681-7.361-3.761-7.681-3.281-13.122 0.48-5.361-0.48-11.122-3.601-21.924-0.48-1.76-1.2-10.562-1.52-19.603-0.24-9.041-0.56-16.483-0.64-16.563 0-0.080-2.64-2.72-5.761-6.001-3.121-3.201-7.521-8.001-9.682-10.562-3.921-4.721-4.001-4.801-3.361-8.401 1.12-5.921 0.64-17.123-0.8-19.923-1.52-2.88-1.68-6.561-0.32-6.561 2.48 0 9.281-10.642 9.362-14.722 0.080-2.64 4.961-9.442 10.482-14.882 6.641-6.401 7.281-8.481 4.721-15.442-0.96-2.72-2.080-5.281-2.4-5.761-0.48-0.72-6.321-10.642-10.482-17.923-3.201-5.601-4.881-11.762-6.241-22.724-0.4-3.361-1.6-7.361-3.040-10.402-2.56-5.121-5.281-17.763-6.561-30.565-0.4-3.521-1.040-7.361-1.44-8.481-0.48-1.2-0.56-2.48-0.080-3.201 2.080-3.281-0.72-10.482-5.441-13.762-2.64-1.84-6.881-7.041-9.362-11.522-0.32-0.56 0-2.32 0.72-3.921 1.76-4.241 1.52-7.521-1.040-11.602-1.2-1.92-3.521-6.321-5.201-9.682-3.121-6.321-7.041-10.562-12.562-13.442-3.921-2.080-14.082-13.522-15.683-17.683-0.8-2.080-1.52-7.601-1.92-13.522-0.4-7.521-1.040-11.122-2.4-14.402-5.041-12.322-8.401-19.923-13.682-31.605-5.601-12.242-5.841-13.042-5.841-18.803-0.080-4.561 0.48-7.521 2.16-12.402 2.96-8.401 3.921-9.762 7.681-10.802l3.040-0.8 0.48-5.361c0.32-3.040 0.56-8.161 0.56-11.442 0-15.202 7.601-28.805 19.843-35.446 14.242-7.761 39.526-6.801 47.768 1.84 2.080 2.16 2.16 2.64 2.16 10.722 0 7.361-0.24 8.801-1.76 11.442-2.48 4.161-3.921 8.241-5.601 16.003-0.88 3.601-2.16 7.921-3.040 9.602-3.281 6.561-5.201 14.562-4.721 20.003 0.32 3.201 0.16 5.841-0.4 7.121-0.8 1.76-0.56 2.8 2.64 8.721l3.521 6.641 10.002 4.641c11.442 5.361 15.282 8.481 24.404 19.923 6.801 8.561 17.763 24.004 23.284 32.645 2.16 3.441 5.921 9.041 8.401 12.402 2.4 3.361 7.601 12.322 11.442 19.763 3.921 7.521 7.681 14.482 8.481 15.603 2 2.88 5.601 10.162 5.601 11.362 0 0.56 1.84 4.081 4.081 7.841 2.32 3.761 5.281 8.801 6.561 11.202 1.36 2.4 5.601 8.881 9.442 14.402 17.363 25.044 35.766 60.33 42.727 82.013 0.56 1.76 3.201 7.681 5.841 13.202s5.681 12.722 6.801 16.003c1.92 5.601 7.361 18.243 8.881 20.643 0.32 0.56 1.2 0.96 1.92 0.8 0.88-0.16 1.52-1.92 2.32-6.241 1.52-8.721 3.441-20.963 4.641-29.205 0.56-3.921 2.16-12.802 3.521-19.683 2.32-11.922 8.881-50.968 10.482-62.41 0.4-2.96 1.2-12.402 1.6-20.883 0.48-8.481 1.44-18.163 2.080-21.443s1.44-10.642 1.92-16.403c0.4-5.681 1.12-12.162 1.52-14.402 0.4-2.16 0.8-5.841 0.8-8.081 0.080-2.24 0.88-6.401 1.76-9.201 2.4-7.121 2.4-15.843 0.080-20.883-2-4.321-2.080-4.961-0.8-9.842 0.8-3.121 0.8-4.241-0.48-7.921-1.52-4.321-1.44-4.321 0.24-6.721 2.32-3.281 2.16-6.081-1.12-15.603-1.84-5.441-3.040-10.882-3.601-16.403-0.4-4.561-1.12-8.961-1.6-9.762-0.4-0.8-0.8-2.72-0.8-4.161s-0.56-4.401-1.2-6.561c-1.6-5.361-1.6-16.403 0.080-18.723 2.48-3.601 11.922-7.121 26.964-10.242 5.281-1.040 10.242-1.92 11.042-1.92 0.72 0 3.040 1.28 5.041 2.8 4.881 3.681 6.721 4.081 11.122 2.080 2-0.96 4.081-1.68 4.481-1.68 0.48 0 2.64-1.76 4.881-4.001 2.24-2.16 4.401-4.001 4.801-4.001 0.48 0 2.48-1.2 4.561-2.72 4.721-3.361 8.721-5.361 15.442-7.681 9.041-3.201 14.482-4.081 28.165-4.481 11.922-0.4 14.082-0.24 20.403 1.28 13.202 3.361 16.083 7.841 14.082 22.084-0.4 3.201-1.12 4.481-4.241 7.601-3.921 3.921-11.282 8.081-20.403 11.522-2.96 1.040-6.241 2.72-7.361 3.601s-3.521 1.84-5.361 2.080c-2.72 0.4-4.161 1.44-8.081 5.521-2.64 2.72-5.761 5.201-6.961 5.521-1.52 0.32-2.72 1.52-3.841 3.601-0.8 1.68-5.121 6.481-9.602 10.562-4.401 4.081-8.001 7.761-8.001 8.081 0 0.4 1.52 2.080 3.441 3.681 1.84 1.6 4.641 4.321 6.241 6.001 3.921 4.081 10.562 15.603 10.482 18.163 0 1.12-0.8 5.681-1.68 10.162-1.44 7.201-1.52 8.561-0.56 12.002 0.64 2.080 1.92 10.162 2.88 17.843s2.56 16.883 3.601 20.403c3.761 12.562 10.882 43.207 11.682 49.928 0.4 3.761 1.12 9.041 1.52 11.682 3.601 23.124 2.64 57.369-2 73.212-1.2 4.081-2 8.241-1.76 9.442 0.56 2.64-0.72 16.723-2.24 25.364-1.68 9.362-2.88 21.283-2.72 26.164 0.24 6.241-2.88 18.163-6.561 24.804-0.88 1.68-2.080 5.281-2.64 8.001-1.2 5.601-4.321 16.323-5.361 18.403-0.4 0.8-0.72 1.84-0.72 2.4 0 0.48-2.24 5.601-4.881 11.362-2.72 5.761-6.481 14.482-8.321 19.283-1.92 4.881-5.681 14.002-8.401 20.323-5.361 12.402-5.441 13.202-2 18.323 1.040 1.6 2.8 6.161 3.921 10.002 1.12 3.921 2.24 7.361 2.4 7.681 1.12 1.84-4.401 9.682-9.762 13.922-3.121 2.4-2 4.081 3.040 4.561 7.761 0.72 12.082 4.641 14.722 13.442 1.12 3.841 1.12 4.561 0 7.361-0.64 1.68-1.12 4.561-0.96 6.481 0.24 2.96 0.56 3.521 2.64 4.081 1.36 0.4 3.201 1.12 4.161 1.6 2.080 1.040 13.362 0.080 16.243-1.36 3.601-1.84 13.682-3.761 14.802-2.8 1.040 0.88 8.641 2.080 18.803 3.121 3.281 0.24 6.801 1.040 7.761 1.68 2.080 1.36 4.241 6.561 4.241 10.162 0 1.44 0.88 4.241 2 6.321 2.32 4.401 2.48 7.201 0.64 11.362-0.8 1.92-1.44 6.401-1.84 12.562-0.48 9.522-0.56 9.682-4.481 17.283-2.16 4.161-4.801 9.762-5.921 12.322-1.040 2.64-2.88 5.841-4.001 7.201-1.2 1.28-2.96 4.081-3.921 6.161-1.68 3.521-6.161 8.001-11.442 11.282-2.8 1.76-2.8 3.201-0.16 4.881 1.52 1.040 1.92 1.92 1.76 3.521-0.16 1.76 0.16 2.24 1.6 2.4 1.040 0.16 2.72-0.32 3.841-0.96 2.8-1.92 17.043-5.521 19.443-4.961 1.12 0.24 5.361 1.12 9.281 2 4.001 0.88 8.641 2.080 10.402 2.8 1.76 0.64 3.921 1.2 4.881 1.28 4.721 0.080 17.603 5.281 25.924 10.402 0.64 0.4 4.961 2.96 9.602 5.681s9.041 5.521 9.922 6.241c1.92 1.68 4.081 6.161 4.801 9.682 0.24 1.52 2.080 5.841 4.001 9.602s3.921 8.721 4.481 11.042c0.8 3.601 1.44 4.561 4.081 6.241 2.8 1.76 3.121 2.24 3.121 5.281 0 2.96 0.48 3.921 3.921 7.441 3.361 3.441 4.081 4.801 5.281 9.842 0.8 3.521 2.24 6.881 3.361 8.241 2 2.4 2.080 2.64 3.921 18.163 0.4 2.72 0.16 5.361-0.48 7.441-0.96 2.72-0.96 3.681 0 5.761 1.2 2.96 1.44 6.401 0.56 9.522-0.48 1.68 0 2.8 2.080 5.601 2.48 3.201 2.64 3.841 2.32 8.241l-0.32 4.801 14.082 7.041c7.761 3.841 14.322 6.961 14.562 6.961s0.24-1.52-0.080-3.361c-0.56-4.401 0.88-7.201 4.001-7.921 1.36-0.32 3.761-1.12 5.361-1.84 4.241-1.84 11.362-1.68 15.523 0.4 4.561 2.16 9.362 7.521 8.881 9.762-1.76 7.121-1.68 7.601 1.12 8.161 1.44 0.32 21.123 0.48 43.767 0.32 39.926-0.32 41.127-0.24 42.247 1.2 1.36 1.92 1.52 7.761 0.16 9.121-0.64 0.64-11.842 0.8-45.047 0.4l-44.167-0.48-0.48 1.92c-0.32 1.040-0.56 2.88-0.56 4.001 0 1.2-0.64 2.96-1.52 4.001-1.44 1.76-1.52 1.84-4.961 0.48-6.321-2.4-6.081-2.8-6.481 10.482-0.4 12.882-1.12 15.362-4.321 15.362-3.361 0-4.801-1.28-11.202-9.842-14.802-19.603-16.483-21.123-17.363-14.882-0.24 1.76-0.64 3.521-0.96 3.761-0.32 0.32-21.764 0.64-47.768 0.8-42.807 0.16-47.368 0.080-48.728-1.12-0.8-0.72-1.52-2.080-1.68-3.040-0.24-1.6-0.72-1.68-6.881-1.68-5.681 0-6.881 0.24-7.761 1.52-1.040 1.36-2.16 1.52-11.602 1.36-7.121-0.080-10.882 0.16-11.682 0.8s-1.12 2.72-1.12 7.201v6.321h9.442c12.402 0 12.562 0.16 12.562 11.202 0 6.561-0.24 8.081-1.52 9.522-0.88 0.96-2.16 1.68-2.96 1.68-1.040 0-2.080 1.28-3.201 3.681-2.96 6.241-1.52 6.001-35.686 5.761-35.526-0.32-34.646-0.080-34.646-7.281 0-2.48-0.48-4.881-1.2-5.841-1.68-2.24-1.68-14.962 0-16.323 0.72-0.56 3.521-1.68 6.241-2.4l4.961-1.36 0.24-5.121c0.32-6.881-0.24-8.721-2.56-8.721-2.16 0-3.361 1.28-5.761 5.841-1.040 2.24-2.72 3.841-5.121 5.121-3.361 1.84-3.681 1.84-6.641 0.64-3.201-1.28-5.361-1.2-10.722 0.48-3.281 1.040-6.641 6.561-6.641 10.962 0 1.76 0.72 5.601 1.6 8.481 1.6 5.121 1.76 5.281 4.401 5.281 2.080 0 3.361 0.72 5.761 3.201 1.68 1.68 5.921 4.721 9.442 6.641 6.481 3.521 6.641 3.761 10.322 11.762 0.64 1.28 1.92 2.16 4.241 2.8 1.84 0.4 3.761 1.2 4.161 1.6 0.72 0.8-0.16 5.761-2.8 15.282-0.72 2.72-1.12 8.321-1.12 16.643 0 6.961-0.32 13.202-0.8 14.002-2 3.841-18.963 6.081-23.204 3.121-1.12-0.8-3.441-1.44-5.281-1.44-3.121 0-3.761 0.48-10.402 7.041-10.082 9.842-22.884 19.923-26.484 20.883-1.68 0.4-7.201 1.92-12.242 3.281s-10.482 2.8-12.002 3.201c-1.52 0.4-9.602 0.72-18.003 0.72-12.482-0.080-16.003-0.32-19.603-1.52zM645.63 776.77c9.682-0.96 18.403-2.080 19.443-2.4 2.72-1.040 2.16-3.361-1.84-8.081-3.601-4.081-7.201-10.802-9.121-16.803-0.56-1.6-2.72-4.721-4.801-6.801-5.121-5.281-9.762-11.682-13.122-18.323-3.281-6.561-9.842-15.523-11.362-15.523-4.801 0-6.961 5.761-9.522 26.004-1.6 12.162-1.6 15.523-0.080 16.083 0.96 0.4 1.2 2.48 1.2 12.082 0 17.283-1.2 16.723 29.205 13.762zM569.937 757.327c1.44-1.68 0.8-6.401-0.88-6.721-1.6-0.32-4.641 2.8-4.641 4.721 0 2.64 3.921 4.001 5.521 2zM614.825 513.688c0-0.88 0.4-1.84 0.8-2.080 0.48-0.32 0.8 0.4 0.8 1.52s-0.32 2.080-0.8 2.080c-0.4 0-0.8-0.72-0.8-1.52z" />
<glyph unicode="&#xe906;" glyph-name="alarm-clock" data-tags="alarm-clock" d="M886.302 550.942c30.359 30.84 47.345 71.138 47.345 114.628 0 90.534-73.668 164.201-164.141 164.201-53.368 0-102.099-26.142-132.939-69.271-30.178 9.336-61.801 14.999-94.449 17.288v61.741h60.235v60.235h-180.706v-60.235h60.235v-61.741c-32.648-2.289-64.271-7.951-94.449-17.288-30.84 43.189-79.511 69.271-132.939 69.271-90.473 0-164.141-73.668-164.141-164.201 0-43.55 16.986-83.848 47.345-114.628-30.057-57.946-47.345-123.603-47.345-193.295 0-102.822 37.105-197.030 98.485-270.276l-77.402-103.183 48.188-36.141 71.8 95.774c74.632-66.801 172.755-107.821 280.576-107.821s205.944 41.020 280.576 107.821l71.8-95.774 48.188 36.141-77.402 103.183c61.38 73.246 98.485 167.454 98.485 270.276 0 69.692-17.288 135.349-47.345 193.295zM769.506 769.536c57.284 0 103.906-46.622 103.906-103.966 0-22.468-7.228-43.61-20.179-61.259-40.84 56.38-95.232 102.039-158.419 132.638 19.396 20.42 45.899 32.587 74.692 32.587zM150.588 665.57c0 57.284 46.622 103.966 103.906 103.966 28.792 0 55.296-12.168 74.692-32.527-63.187-30.6-117.519-76.318-158.419-132.638-12.951 17.649-20.179 38.731-20.179 61.199zM512-3.765c-199.319 0-361.412 162.093-361.412 361.412s162.093 361.412 361.412 361.412 361.412-162.093 361.412-361.412-162.093-361.412-361.412-361.412zM542.118 357.647h240.941v-60.235h-301.176v240.941h60.235v-180.706z" />
<glyph unicode="&#xe907;" glyph-name="alert" data-tags="alert" d="M509.229 870.129l-496.459-873.894h998.761l-502.302 873.894zM509.53 748.695l397.854-692.224h-791.13l393.276 692.224zM542.118 301.146h-60.235v237.207h60.235v-237.207zM572.235 175.074c0-33.25-26.925-60.235-60.235-60.235s-60.235 26.985-60.235 60.235 26.925 60.235 60.235 60.235 60.235-26.985 60.235-60.235z" />
<glyph unicode="&#xe908;" glyph-name="users" data-tags="users" d="M0 231.18c0-16.594 0-65.796 0-76.642s6.435-29.391 29.717-29.391c17.859 0 160.442 0 225.768 0 19.775 0 32.537 0 32.537 0h5.604c0 0 3.76 0 9.797 0 0-17.497 0-33.404 0-39.514 0-13.412 7.953-36.369 36.766-36.369 22.125 0 199.16 0 280.032 0 24.475 0 40.345 0 40.345 0h6.941c0 0 15.545 0 39.659 0 80.582 0 257.907 0 280.068 0 28.777 0 36.766 22.92 36.766 36.369s0 74.292 0 94.826-7.267 43.31-36.766 55.963c-37.309 16.341-137.341 52.492-200.173 71.038-4.844 1.555-5.676 1.808-5.676 23.354 0 23.209 2.675 39.659 8.315 51.733 7.773 16.485 16.955 44.25 20.209 69.122 9.255 10.701 21.8 31.814 29.861 72.051 7.122 35.465 3.796 48.371-0.904 60.482-0.506 1.265-1.048 2.531-1.41 3.977-1.735 8.134 0.651 51.336 6.797 84.884 4.194 22.993-1.085 71.87-32.754 112.36-19.992 25.559-58.277 56.975-127.001 61.277l-38.321 0.036c-69.881-4.374-108.13-35.754-128.122-61.313-31.669-40.454-36.911-89.367-32.717-112.36 6.074-33.513 8.532-76.714 6.724-85.029-0.362-1.265-0.904-2.531-1.374-3.796-4.7-12.111-7.99-25.017-0.94-60.482 8.062-40.237 20.643-61.35 29.861-72.051 3.29-24.872 12.472-52.637 20.209-69.122 7.158-15.184 14.461-33.115 14.461-50.938 0-21.583-0.831-21.836-6.001-23.463-12.942-3.796-27.584-8.387-42.985-13.304-36.296 13.485-81.956 29.247-115.071 39.044-3.941 1.229-4.591 1.446-4.591 18.871 0 18.763 2.169 32.067 6.724 41.828 6.29 13.34 13.702 35.754 16.377 55.891 7.447 8.64 17.606 25.704 24.113 58.241 5.748 28.668 3.037 39.080-0.759 48.877-0.398 1.048-0.831 2.061-1.121 3.218-1.41 6.58 0.506 41.502 5.423 68.616 3.362 18.582-0.831 58.096-26.427 90.85-16.16 20.643-47.106 46.021-102.599 49.564h-30.946c-56.469-3.507-87.379-28.921-103.539-49.564-25.595-32.754-29.861-72.267-26.427-90.85 4.88-27.114 6.905-62.037 5.459-68.761-0.289-1.012-0.759-2.025-1.121-3.073-3.832-9.797-6.471-20.209-0.759-48.877 6.507-32.537 16.666-49.6 24.113-58.241 2.675-20.137 10.086-42.515 16.341-55.891 5.784-12.292 11.713-26.788 11.713-41.177 0-17.461-0.651-17.642-4.844-18.98-49.094-14.497-128.447-42.045-162.032-56.108-23.86-10.231-35.284-30.548-35.284-47.142zM341.309 180.422c0 5.64 5.64 16.991 20.751 23.463 39.875 16.666 137.594 50.359 196.955 67.857 33.187 10.412 33.187 38.972 33.187 59.831 0 25.27-9.146 48.082-18.112 67.098-6.182 13.232-14.135 37.056-16.919 57.951l-1.482 11.207-7.411 8.568c-4.085 4.736-14.352 19.558-21.366 54.77-5.495 27.512-3.073 33.766-0.94 39.297l0.036 0.072 0.325 0.94c0.795 1.952 1.482 3.904 2.025 5.82l0.398 1.374 0.289 1.41c3.868 18.112-1.193 70.315-6.507 99.707-2.422 13.232 0.615 50.685 25.306 82.245 21.944 28.054 55.421 43.78 99.49 46.78l35.899-0.036c53.975-3.687 83.258-27.403 98.369-46.744 24.692-31.561 27.692-69.014 25.306-82.173-5.206-28.668-10.376-81.703-6.543-99.598l0.181-0.795 0.217-0.795c0.795-3.073 1.771-5.82 2.892-8.568 1.952-5.097 4.411-11.46-1.085-38.899-7.050-35.248-17.281-49.998-21.366-54.698l-7.447-8.604-1.446-11.279c-2.784-20.932-10.701-44.647-16.955-57.879-8.134-17.389-11.93-38.936-11.93-67.893 0-20.823 0-49.311 32.103-59.506 61.169-18.076 160.514-53.902 196.449-69.628 10.701-4.591 14.063-9.725 14.063-21.221v-93.236h-644.514l-0.181 93.236zM37.923 231.18c0.072 1.482 2.422 8.026 12.328 12.292 32.5 13.629 110.841 40.707 157.803 54.589 32.031 10.195 32.031 38.466 32.031 55.348 0 21.8-7.736 41.213-15.328 57.337-4.917 10.52-10.99 29.319-13.051 44.72l-1.482 11.207-7.375 8.568c-2.314 2.639-10.159 13.448-15.654 40.96-4.049 20.137-2.422 24.33-1.121 27.692l0.217 0.506 0.145 0.506c0.795 1.952 1.301 3.507 1.735 5.061l0.434 1.41 0.289 1.41c3.724 17.497-1.627 63.736-5.206 83.475-1.663 9.291 0.795 37.381 19.052 60.735 16.377 20.896 41.538 32.681 74.87 34.995h28.488c40.743-2.892 62.687-20.57 73.967-34.995 18.221-23.318 20.715-51.48 19.052-60.735-3.832-20.86-8.821-66.555-5.278-83.294l0.362-1.591c0.723-2.675 1.555-5.061 2.494-7.483 1.301-3.326 2.928-7.592-1.085-27.692-5.531-27.548-13.376-38.285-15.654-40.924l-7.375-8.568-1.482-11.207c-2.061-15.473-8.134-34.236-13.123-44.756-7.050-15.075-10.339-33.477-10.339-57.951 0-16.919 0-45.226 31.054-55.059 19.63-5.82 44.069-13.846 68.218-22.27-39.875-13.665-77.907-27.512-99.887-36.694-29.572-12.689-43.708-37.779-43.708-58.313 0-4.266 0-10.376 0-17.389h-265.463v68.11z" />
<glyph unicode="&#xe909;" glyph-name="align-center" data-tags="align-center" d="M1024 839.529v-60.235h-1024v60.235h1024zM90.353 598.588v-60.235h843.294v60.235h-843.294zM0 297.412h1024v60.235h-1024v-60.235zM210.824 56.471h602.353v60.235h-602.353v-60.235z" />
<glyph unicode="&#xe90a;" glyph-name="align-justify" data-tags="align-justify" d="M1024 839.529v-60.235h-1024v60.235h1024zM0 538.353h1024v60.235h-1024v-60.235zM0 297.412h1024v60.235h-1024v-60.235zM0 56.471h1024v60.235h-1024v-60.235z" />
<glyph unicode="&#xe90b;" glyph-name="align-left" data-tags="align-left" d="M1024 839.529v-60.235h-1024v60.235h1024zM843.294 598.588h-843.294v-60.235h843.294v60.235zM0 297.412h1024v60.235h-1024v-60.235zM0 56.471h602.353v60.235h-602.353v-60.235z" />
<glyph unicode="&#xe90c;" glyph-name="align-right" data-tags="align-right" d="M1024 839.529v-60.235h-1024v60.235h1024zM180.706 538.353h843.294v60.235h-843.294v-60.235zM0 297.412h1024v60.235h-1024v-60.235zM421.647 56.471h602.353v60.235h-602.353v-60.235z" />
<glyph unicode="&#xe90d;" glyph-name="anchor" data-tags="anchor" d="M921.058 201.517l-94.569 188.356-188.356-94.449 26.985-53.911 112.7 56.561c-22.468-114.869-117.82-202.692-235.701-215.944v456.222h90.353v60.235h-90.353v63.307c68.668 13.975 120.471 74.752 120.471 147.516 0 83.064-67.584 150.588-150.588 150.588s-150.588-67.524-150.588-150.588c0-72.764 51.802-133.542 120.471-147.516v-63.307h-90.353v-60.235h90.353v-456.222c-117.76 13.252-213.112 100.954-235.64 215.642l112.038-56.26 26.985 53.911-188.356 94.449-94.569-188.356 53.85-27.046 39.213 78.185c41.743-135.228 167.876-233.833 316.597-233.833 148.42 0 274.432 98.184 316.356 232.93l38.852-77.282 53.85 27.046zM421.647 809.412c0 49.815 40.538 90.353 90.353 90.353s90.353-40.538 90.353-90.353-40.538-90.353-90.353-90.353-90.353 40.538-90.353 90.353z" />
<glyph unicode="&#xe90e;" glyph-name="angle-double-down" data-tags="angle-double-down" d="M512 318.856l-412.853 412.853 42.586 42.586 370.266-370.206 370.206 370.206 42.586-42.586-412.792-412.853zM512 112.248l-370.206 370.266-42.647-42.586 412.853-412.853 412.853 412.853-42.586 42.586-370.266-370.266z" />
<glyph unicode="&#xe90f;" glyph-name="angle-double-left" data-tags="angle-double-left" d="M481.099 448l370.206-370.206-42.586-42.586-412.792 412.792 412.853 412.853 42.586-42.586-370.266-370.266zM559.586 818.266l-42.586 42.586-412.853-412.853 412.853-412.853 42.586 42.586-370.206 370.266 370.206 370.266z" />
<glyph unicode="&#xe910;" glyph-name="angle-double-right" data-tags="angle-double-right" d="M580.909 448l-412.853-412.853-42.586 42.586 370.206 370.266-370.206 370.206 42.586 42.647 412.853-412.853zM459.836 860.853l-42.586-42.647 370.206-370.206-370.206-370.206 42.586-42.586 412.792 412.792-412.792 412.853z" />
<glyph unicode="&#xe911;" glyph-name="angle-double-up" data-tags="angle-double-up" d="M512 594.191l412.853-412.853-42.586-42.586-370.266 370.266-370.206-370.206-42.586 42.586 412.792 412.792zM512 800.738l370.206-370.206 42.586 42.586-412.792 412.853-412.853-412.853 42.647-42.586 370.206 370.206z" />
<glyph unicode="&#xe912;" glyph-name="motocycle" data-tags="motocycle" d="M862.404 478.746c-89.108 0-161.58-72.437-161.58-161.647 0-89.108 72.472-161.596 161.58-161.596s161.596 72.488 161.596 161.596c0 89.194-72.488 161.647-161.596 161.647zM862.404 233.086c-46.334 0-84.013 37.679-84.013 84.013 0 46.351 37.662 84.046 84.013 84.046s84.064-37.695 84.064-84.046c0-46.334-37.712-84.013-84.064-84.013zM912.957 508.748c29.529-1.114 32.076 170.219-186.182 230.104-46.334 12.756-8.791-50.891-12.419-87.033 0 0-198.669 105.543-271.898-27.116-27.301-49.506-33.612-73.231-105.627-73.231-72.066 0-42.605 61.993-137.418 63.191-59.665 0.676-120.764-27.487-114.74-50.098 4.943-18.528 170.557-26.187 235.199-151.169-125.826-56.678-174.759-72.675-164.684-99.975 10.378-28.382 249.137-59.176 249.137-59.176s252.056-45.745 255.785 4.843c9.669 132.508 53.354 256.915 252.848 249.66zM161.547 233.086c-46.267 0-84.013 37.679-84.013 84.013 0 46.351 37.746 84.046 84.013 84.046 16.654 0 32.093-4.876 45.085-13.196l75.711 36.413c-29.562 33.325-72.775 54.366-120.831 54.366-89.108 0-161.512-72.437-161.512-161.647 0-89.108 72.421-161.596 161.512-161.596 62.229 0 116.259 35.316 143.306 86.865l-80.825 18.661c-15.372-17.109-37.611-27.925-62.448-27.925z" />
<glyph unicode="&#xe913;" glyph-name="angle-down" data-tags="angle-down" d="M985.088 654.306l-473.148-473.088-473.028 473.088 42.586 42.586 430.381-430.441 430.562 430.502 42.647-42.647z" />
<glyph unicode="&#xe914;" glyph-name="angle-left" data-tags="angle-left" d="M313.645 449.747l430.441-430.502-42.586-42.586-473.028 473.088 473.088 473.028 42.586-42.586-430.502-430.441z" />
<glyph unicode="&#xe915;" glyph-name="angle-right" data-tags="angle-right" d="M795.528 449.687l-473.088-473.088-42.586 42.586 430.441 430.441-430.441 430.562 42.586 42.586 473.088-473.088z" />
<glyph unicode="&#xe916;" glyph-name="angle-up" data-tags="angle-up" d="M985.088 243.441l-42.586-42.586-430.502 430.441-430.441-430.441-42.586 42.586 473.028 473.028 473.088-473.028z" />
<glyph unicode="&#xe917;" glyph-name="announcement" data-tags="announcement" d="M992.015 826.157h-116.073c-17.589 0-31.985-14.095-31.985-31.383v-40.177l-662.287-242.748v16.264c0 25.901-21.564 47.044-48.008 47.044h-85.655c-26.443 0-48.008-21.143-48.008-47.044v-282.383c0-25.841 21.564-47.044 48.008-47.044h85.655c26.383 0 48.008 21.203 48.008 47.044v19.938l62.283-11.384c-1.385-9.818-2.289-19.637-2.289-29.576 0-114.266 94.027-207.27 209.559-207.27 99.81 0 182.513 67.945 203.595 161.551l189.139-34.696v-39.695c0-17.288 14.396-31.383 31.985-31.383h116.073c17.589 0 31.985 14.095 31.985 31.383v690.176c0 17.288-14.396 31.383-31.985 31.383zM451.223 77.673c-82.342 0-149.323 65.958-149.323 147.034 0 6.264 1.626 12.348 2.409 18.552l291.539-53.489c-15.902-65.175-74.391-112.098-144.625-112.098zM963.765 133.451h-59.573v61.018l-782.758 143.541v-79.029h-61.199v256h61.199v-89.389l782.758 286.901v53.429h59.573v-632.471z" />
<glyph unicode="&#xe918;" glyph-name="archive" data-tags="archive" d="M1024 839.529h-1024v-240.941h60.235v-662.588h903.529v662.588h60.235v240.941zM903.529-3.765h-783.059v602.353h783.059v-602.353zM963.765 658.824h-903.529v120.471h903.529v-120.471zM361.412 297.412h302.14c66.44 0 120.471 54.031 120.471 120.471s-54.031 120.471-120.471 120.471h-302.14c-66.44 0-120.471-54.031-120.471-120.471s54.031-120.471 120.471-120.471zM361.412 478.118h302.14c33.25 0 60.235-26.985 60.235-60.235s-26.985-60.235-60.235-60.235h-302.14c-33.25 0-60.235 26.985-60.235 60.235s26.985 60.235 60.235 60.235z" />
<glyph unicode="&#xe919;" glyph-name="arrow-circle-down" data-tags="arrow-circle-down" d="M731.618 589.794l42.586-42.586-262.204-262.264-262.264 262.204 42.586 42.586 219.678-219.618 219.618 219.678zM1024 448c0-282.323-229.677-512-512-512s-512 229.677-512 512 229.677 512 512 512 512-229.677 512-512zM963.765 448c0 249.133-202.632 451.765-451.765 451.765s-451.765-202.632-451.765-451.765 202.632-451.765 451.765-451.765 451.765 202.632 451.765 451.765z" />
<glyph unicode="&#xe91a;" glyph-name="arrow-circle-left" data-tags="arrow-circle-left" d="M653.794 667.618l-219.678-219.618 219.618-219.618-42.586-42.586-262.204 262.204 262.264 262.264 42.586-42.647zM1024 448c0-282.323-229.677-512-512-512s-512 229.677-512 512 229.677 512 512 512 512-229.677 512-512zM963.765 448c0 249.133-202.632 451.765-451.765 451.765s-451.765-202.632-451.765-451.765 202.632-451.765 451.765-451.765 451.765 202.632 451.765 451.765z" />
<glyph unicode="&#xe91b;" glyph-name="arrow-circle-right" data-tags="arrow-circle-right" d="M412.853 710.264l262.204-262.264-262.264-262.264-42.586 42.586 219.678 219.678-219.678 219.618 42.647 42.647zM1024 448c0-282.323-229.677-512-512-512s-512 229.677-512 512 229.677 512 512 512 512-229.677 512-512zM963.765 448c0 249.133-202.632 451.765-451.765 451.765s-451.765-202.632-451.765-451.765 202.632-451.765 451.765-451.765 451.765 202.632 451.765 451.765z" />
<glyph unicode="&#xe91c;" glyph-name="arrow-circle-up" data-tags="arrow-circle-up" d="M512 611.057l262.264-262.264-42.586-42.586-219.678 219.678-219.618-219.618-42.586 42.586 262.204 262.204zM1024 448c0-282.323-229.677-512-512-512s-512 229.677-512 512 229.677 512 512 512 512-229.677 512-512zM963.765 448c0 249.133-202.632 451.765-451.765 451.765s-451.765-202.632-451.765-451.765 202.632-451.765 451.765-451.765 451.765 202.632 451.765 451.765z" />
<glyph unicode="&#xe91d;" glyph-name="arrow-down" data-tags="arrow-down" d="M954.97 426.677l-442.97-442.91-442.97 442.91 42.586 42.586 370.266-370.206v800.708h60.235v-800.708l370.206 370.206 42.647-42.586z" />
<glyph unicode="&#xe91e;" glyph-name="arrow-left" data-tags="arrow-left" d="M963.765 419.569h-770.59l370.206-370.206-42.586-42.586-442.91 442.91 442.97 442.97 42.586-42.586-370.266-370.266h770.59v-60.235z" />
<glyph unicode="&#xe91f;" glyph-name="arrow-right" data-tags="arrow-right" d="M946.116 449.687l-442.97-442.97-42.586 42.586 370.206 370.206h-770.53v60.235h770.59l-370.266 370.327 42.586 42.586 442.97-442.97z" />
<glyph unicode="&#xe920;" glyph-name="arrow-top-left" data-tags="arrow-top-left" d="M740.412 176.941l-621.448 620.243v-439.537h-60.235v542.298h543.624v-60.235h-440.681l621.327-620.122-42.586-42.647z" />
<glyph unicode="&#xe921;" glyph-name="arrow-top-right" data-tags="arrow-top-right" d="M963.765 899.945v-542.298h-60.235v439.537l-621.448-620.243-42.586 42.647 621.327 620.122h-440.681v60.235h543.624z" />
<glyph unicode="&#xe922;" glyph-name="arrow-up" data-tags="arrow-up" d="M912.324 426.677l-370.206 370.266v-800.708h-60.235v800.708l-370.206-370.266-42.647 42.647 442.97 442.91 442.97-442.97-42.647-42.586z" />
<glyph unicode="&#xe923;" glyph-name="arrow" data-tags="arrow" d="M819.381 276.39l-42.526 42.647 99.027 98.846h-333.764v-333.764l98.846 99.027 42.647-42.526-171.61-171.972-171.61 171.972 42.647 42.526 98.846-99.027v333.764h-333.764l99.027-98.846-42.526-42.647-171.972 171.61 171.972 171.61 42.526-42.647-99.027-98.846h333.764v333.764l-98.846-99.027-42.647 42.526 171.61 171.972 171.61-171.972-42.647-42.526-98.846 99.027v-333.764h333.764l-99.027 98.846 42.526 42.647 171.972-171.61-171.972-171.61z" />
<glyph unicode="&#xe924;" glyph-name="arrows-corner" data-tags="arrows-corner" d="M903.529 387.765v-331.294h-331.294v60.235h229.075l-620.604 620.604v-229.075h-60.235v331.294h331.294v-60.235h-227.87l619.4-619.4v227.87h60.235z" />
<glyph unicode="&#xe925;" glyph-name="arrows-horizontal" data-tags="arrows-horizontal" d="M1006.893 448l-238.17-232.388-42.044 43.128 163.057 159.142h-755.471l163.117-159.142-42.044-43.128-238.231 232.388 238.17 232.388 42.044-43.128-163.057-159.142h755.531l-163.117 159.142 42.044 43.128 238.17-232.388z" />
<glyph unicode="&#xe926;" glyph-name="arrows-vertical" data-tags="arrows-vertical" d="M701.259 233.382l43.128-42.044-232.388-238.231-232.388 238.17 43.128 42.044 159.142-163.057v755.471l-159.142-163.117-43.128 42.104 232.388 238.17 232.388-238.17-43.128-42.044-159.142 163.057v-755.531l159.142 163.177z" />
<glyph unicode="&#xe927;" glyph-name="back-left" data-tags="back-left" d="M903.529 508.235c0-182.694-148.6-331.294-331.294-331.294h-175.405l159.383-159.383-42.586-42.586-232.087 232.087 232.147 232.147 42.586-42.586-159.443-159.443h175.405c149.444 0 271.059 121.615 271.059 271.059s-121.615 271.059-271.059 271.059h-426.647v60.235h426.647c182.694 0 331.294-148.6 331.294-331.294z" />
<glyph unicode="&#xe928;" glyph-name="back-right" data-tags="back-right" d="M878.411 56.471v-60.235h-426.647c-182.633 0-331.294 148.6-331.294 331.294s148.661 331.294 331.294 331.294h175.405l-159.383 159.383 42.586 42.586 232.087-232.087-232.087-232.147-42.586 42.647 159.383 159.383h-175.405c-149.444 0-271.059-121.615-271.059-271.059s121.615-271.059 271.059-271.059h426.647z" />
<glyph unicode="&#xe929;" glyph-name="bag" data-tags="bag" d="M783.059 719.059v144.203c0 53.308-44.393 96.738-98.967 96.738h-343.281c-54.513 0-98.906-43.43-98.906-96.738v-144.203h-181.67v-783.059h903.529v783.059h-180.706zM302.14 863.262c0 20.119 17.348 36.503 38.671 36.503h343.281c21.384 0 38.731-16.384 38.731-36.503v-144.203h-420.683v144.203zM903.529-3.765h-783.059v481.882h783.059v-481.882zM903.529 538.353h-783.059v120.471h121.434v-38.731h60.235v38.731h420.683v-38.731h60.235v38.731h120.471v-120.471z" />
<glyph unicode="&#xe92a;" glyph-name="bar-chart-alt" data-tags="bar-chart-alt" d="M1024-3.765v-60.235h-1024v60.235h1024zM722.824 357.647h120.471v-301.176h60.235v361.412h-240.941v-361.412h60.235v301.176zM421.647 538.353h120.471v-481.882h60.235v542.118h-240.941v-542.118h60.235v481.882zM120.471 779.294h120.471v-722.824h60.235v783.059h-240.941v-783.059h60.235v722.824z" />
<glyph unicode="&#xe92b;" glyph-name="bar-chart" data-tags="bar-chart" d="M1024-3.765v-60.235h-1024v60.235h1024zM120.471 357.647h120.471v-301.176h60.235v361.412h-240.941v-361.412h60.235v301.176zM421.647 538.353h120.471v-481.882h60.235v542.118h-240.941v-542.118h60.235v481.882zM722.824 779.294h120.471v-722.824h60.235v783.059h-240.941v-783.059h60.235v722.824z" />
<glyph unicode="&#xe92c;" glyph-name="basketball" data-tags="basketball" d="M512.964 960c-282.323 0-512-229.677-512-512s229.677-512 512-512 512 229.677 512 512-229.737 512-512 512zM782.396 478.118c5.903 87.944 37.045 171.972 90.172 242.146 51.802-68.247 84.57-151.492 90.594-242.146h-180.766zM963.162 417.882c-6.024-90.654-38.792-173.96-90.654-242.206-53.067 70.234-84.209 154.263-90.052 242.206h180.706zM832.813 766.705c-65.897-82.583-104.388-183.115-110.652-288.587h-180.043v420.201c113.182-7.349 215.281-55.959 290.696-131.614zM481.882 898.199v-420.081h-178.296c-6.144 105.532-44.634 206.005-110.472 288.587 74.933 75.234 176.309 123.784 288.768 131.494zM62.705 478.118c6.024 90.654 38.792 173.96 90.654 242.206 53.067-70.174 84.149-154.202 90.052-242.206h-180.706zM243.351 417.882c-5.843-88.064-36.864-172.032-89.992-242.206-51.863 68.247-84.631 151.552-90.654 242.206h180.646zM193.054 129.295c65.958 82.583 104.388 183.055 110.532 288.587h178.296v-420.081c-112.459 7.71-213.835 56.26-288.828 131.494zM542.118-2.319v420.201h180.104c6.204-105.472 44.695-206.005 110.532-288.648-75.415-75.595-177.453-124.205-290.635-131.554z" />
<glyph unicode="&#xe92d;" glyph-name="bell" data-tags="bell" d="M922.323 109.176c-0.843 0.783-79.029 77.944-79.029 193.355v198.295c0 186.79-148.661 338.703-331.294 338.703s-331.294-151.913-331.294-338.703v-198.295c0-112.098-78.667-192.934-79.39-193.717l-50.778-51.381h925.033l-53.248 51.742zM183.838 117.67c26.744 41.683 57.103 106.255 57.103 184.862v198.295c0 153.54 121.615 278.468 271.059 278.468s271.059-124.928 271.059-278.468v-198.295c0-79.511 29.816-143.541 56.501-184.862h-655.721zM542.118 839.529h-60.235v60.235h60.235v-60.235zM542.118 56.471h60.235c0-49.815-40.538-90.353-90.353-90.353s-90.353 40.538-90.353 90.353h60.235c0-16.625 13.553-30.118 30.118-30.118s30.118 13.493 30.118 30.118z" />
<glyph unicode="&#xe92e;" glyph-name="blackboard" data-tags="blackboard" d="M542.118 839.529v120.471h-60.235v-120.471h-421.647v-602.353h903.529v602.353h-421.647zM903.529 297.412h-783.059v481.882h783.059v-481.882zM210.824 176.941h602.353v-60.235h-155.648l90.594-140.107-50.598-32.708-111.736 172.815h-43.671v-180.706h-60.235v180.706h-42.888l-112.58-172.875-50.477 32.828 91.196 140.047h-156.311v60.235z" />
<glyph unicode="&#xe92f;" glyph-name="bolt-alt" data-tags="bolt-alt" d="M712.584 478.118l-230.46-435.682-53.248 28.13 183.718 347.317h-307.742l295.153 438.453 49.935-33.672-231.966-344.546h294.611z" />
<glyph unicode="&#xe930;" glyph-name="bolt" data-tags="bolt" d="M862.148 838.807h-430.803l-140.408-422.49h100.352l-121.073-364.544 571.211 484.954h-174.923l195.644 302.080zM677.466 476.491l-282.323-239.676 79.631 239.676h-100.292l100.292 302.080h276.6l-195.644-302.080h121.736z" />
<glyph unicode="&#xe931;" glyph-name="book" data-tags="book" d="M999.424 890.609c-3.192 0.602-79.571 14.697-179.561 14.697-126.795 0-230.581-22.046-308.706-65.536-91.437 46.080-196.608 69.391-312.983 69.391-101.256 0-172.634-18.191-175.586-18.974l-22.588-5.903 0.060-837.632 37.587 9.698c0.663 0.12 67.464 17.047 160.527 17.047 87.16 0 166.912-14.456 238.532-42.345v-49.875h150.588v51.561c77.161 29.395 165.466 36.804 232.508 36.804 94.088 0 167.816-13.553 168.538-13.673l35.659-6.626v836.728l-24.576 4.638zM60.235 122.308v714.27c27.166 5.060 76.92 12.348 137.939 12.348 106.074 0 201.126-21.685 283.708-62.886v-709.331c-84.51 37.165-179.32 56.922-283.708 56.922-58.368 0-106.797-6.084-137.939-11.324zM963.765 120.44c-32.286 4.216-83.908 9.276-143.962 9.276-111.315 0-203.656-17.95-277.685-51.501v709.15c85.655 46.984 197.030 57.705 277.685 57.705 61.621 0 114.568-5.843 143.962-9.879v-714.752z" />
<glyph unicode="&#xe932;" glyph-name="bookmark-alt" data-tags="bookmark-alt" d="M603.979 353.19v606.81h-364.664v-606.991l181.971 123.663 182.694-123.482zM299.55 466.793v432.971h244.254v-433.152l-122.699 82.884-121.555-82.703zM963.765 899.343v-903.108h-903.529v903.108h118.904v-60.235h-58.669v-782.637h783.059v782.637h-241.242v60.235h301.478z" />
<glyph unicode="&#xe933;" glyph-name="bookmark" data-tags="bookmark" d="M214.558 899.765v-931.177l282.263 196.969 286.238-196.367v930.575h-568.501zM722.824 83.516l-226.244 155.287-221.726-154.684v755.411h447.97v-756.013z" />
<glyph unicode="&#xe934;" glyph-name="briefcase" data-tags="briefcase" d="M421.647 176.941v90.353h60.235v-30.118h60.235v30.118h60.235v-90.353h-180.706zM1024 297.412h-60.235v-361.412h-903.529v361.412h-60.235v481.882h217.811c56.501 110.231 168.96 180.706 294.189 180.706s237.749-70.536 294.189-180.706h217.811v-481.882zM287.262 779.294h449.596c-49.694 74.27-133.12 120.471-224.798 120.471s-175.104-46.261-224.798-120.471zM903.529 297.412h-783.059v-301.176h783.059v301.176zM963.765 719.059h-903.529v-361.412h903.529v361.412z" />
<glyph unicode="&#xe935;" glyph-name="brush-alt" data-tags="brush-alt" d="M1024 506.368c0 49.815-40.538 90.353-90.353 90.353h-289.611l17.167 55.055 1.385 217.871c0 49.815-40.538 90.353-90.353 90.353h-120.471c-49.815 0-90.353-40.538-90.353-90.353v-207.932l18.673-65.054h-289.732c-49.815 0-90.353-40.538-90.353-90.353v-209.98h56.139l-46.14-360.328h1004.002l-46.14 360.328h56.139v210.040zM945.574-3.765h-102.28v120.471h-60.235v-120.471h-60.235v180.706h-60.235v-180.706h-60.235v240.941h-60.235v-240.941h-301.176v120.471h-60.235v-120.471h-102.28l38.43 300.092h790.287l38.43-300.092zM63.849 356.563h-3.614v149.805c0 16.625 13.493 30.118 30.118 30.118h371.351l-40.056 129.807v203.354c0 16.625 13.493 30.118 30.118 30.118h120.471c16.625 0 30.118-13.493 30.118-30.118v-204.378l-40.177-128.783h371.471c16.625 0 30.118-13.493 30.118-30.118v-149.745h-899.915zM481.882 839.529h60.235v-60.235h-60.235v60.235z" />
<glyph unicode="&#xe936;" glyph-name="brush" data-tags="brush" d="M958.524 852.661l-391.529-572.235-49.694 33.973 391.529 572.235 49.694-33.973zM542.118 117.188c0-66.44-54.031-120.471-120.471-120.471-12.228 0-32.407-0.904-32.587-0.904h-328.523l274.251 206.667c9.035 6.264 51.742 35.177 86.859 35.177 66.44 0 120.471-54.031 120.471-120.471zM481.882 117.188c0 33.19-27.046 60.235-60.235 60.235-10.541 0-35.057-12.228-51.381-23.672l-129.687-97.762h146.552c3.795 0.181 22.648 0.964 34.515 0.964 33.19 0 60.235 27.046 60.235 60.235z" />
<glyph unicode="&#xe937;" glyph-name="calendar" data-tags="calendar" d="M843.294 839.529v60.235h-180.706v-60.235h-301.176v60.235h-180.706v-60.235h-180.706v-903.529h1024v903.529h-180.706zM722.824 839.529h60.235v-120.471h-60.235v120.471zM240.941 839.529h60.235v-120.471h-60.235v120.471zM963.765-3.765h-903.529v537.359h903.529v-537.359zM60.235 593.83v185.464h120.471v-120.471h180.706v120.471h301.176v-120.471h180.706v120.471h120.471v-185.464h-903.529z" />
<glyph unicode="&#xe938;" glyph-name="camera" data-tags="camera" d="M358.882 779.294v60.235h-175.646v-60.235h-183.236v-722.824h1024v722.824h-665.118zM963.765 116.706h-903.529v421.647h394.963c-20.781-35.599-33.551-76.439-33.551-120.471 0-132.879 108.062-240.941 240.941-240.941s240.941 108.062 240.941 240.941c0 44.032-12.77 84.872-33.551 120.471h93.786v-421.647zM843.294 417.882c0-99.629-81.077-180.706-180.706-180.706s-180.706 81.077-180.706 180.706 81.077 180.706 180.706 180.706 180.706-81.077 180.706-180.706zM820.284 598.588c-42.406 36.984-97.099 60.235-157.696 60.235s-115.29-23.251-157.696-60.235h-444.657v120.471h903.529v-120.471h-143.48z" />
<glyph unicode="&#xe939;" glyph-name="car1" data-tags="car" d="M1024 358.611l-117.941-0.12-123.543 240.098h-478.81l-178.778-240.881-124.928-0.060v-299.791h120.591c0-0.482-0.12-0.904-0.12-1.385 0-66.44 54.031-120.471 120.471-120.471s120.471 54.031 120.471 120.471c0 0.482-0.12 0.904-0.12 1.385h301.478c-0.060-0.482-0.181-0.904-0.181-1.385 0-66.44 54.031-120.471 120.471-120.471s120.471 54.031 120.471 120.471c0 0.482-0.12 0.904-0.12 1.385h120.591v300.755zM838.355 358.43l-234.737-0.241v180.164h142.155l92.582-179.923zM333.944 538.353h209.438v-180.224l-343.401-0.301 133.963 180.525zM240.941-3.765c-33.19 0-60.235 27.046-60.235 60.235s27.046 60.235 60.235 60.235 60.235-27.046 60.235-60.235-27.046-60.235-60.235-60.235zM783.059-3.765c-33.19 0-60.235 27.046-60.235 60.235s27.046 60.235 60.235 60.235 60.235-27.046 60.235-60.235-27.046-60.235-60.235-60.235zM963.765 118.091h-77.764c-21.082 35.057-59.091 58.85-102.942 58.85s-81.86-23.793-102.942-58.85h-336.233c-21.082 35.057-59.091 58.85-102.942 58.85s-81.86-23.793-102.942-58.85h-77.764v179.32l903.529 0.904v-180.224z" />
<glyph unicode="&#xe93a;" glyph-name="check-box" data-tags="check-box" d="M843.294 612.984h60.235v-616.749h-843.294v843.294h505.555v-60.235h-445.32v-722.824h722.824v556.514zM292.382 469.323l-42.647-42.647 206.848-206.848 457.005 693.429-50.296 33.19-416.346-631.748-154.564 154.624z" />
<glyph unicode="&#xe93b;" glyph-name="check" data-tags="check" d="M928.708 853.143l-532.058-812.273-296.237 264.192 40.117 44.936 244.013-217.69 493.809 753.845 50.357-33.009z" />
<glyph unicode="&#xe93c;" glyph-name="clip" data-tags="clip" d="M724.088 704.964v-511.88h-60.235v511.88c0 65.717-48.128 136.493-153.841 136.493-116.917 0-148.119-85.775-148.119-136.493v-489.171h0.422v-87.763c0-37.346 41.743-72.644 85.896-72.644 50.839 0 94.389 41.141 94.389 74.752v16.264h-0.181l0.482 458.812c0 52.646-14.878 52.646-28.070 52.646-22.227 0-32.949-2.108-32.949-49.574v-309.971h-60.235v309.971c0 27.166 0 109.809 93.184 109.809 40.297 0 88.305-19.576 88.305-112.941l-0.422-387.313h0.12v-87.763c0-70.656-73.728-134.987-154.624-134.987-77.824 0-146.131 62.103-146.131 132.879v4.457h-0.422v572.536c0 94.75 65.175 196.728 208.354 196.728 140.529-0.060 214.076-98.967 214.076-196.728z" />
<glyph unicode="&#xe93d;" glyph-name="clipboard" data-tags="clipboard" d="M963.765 839.529v-903.529h-903.529v903.529h135.168v-60.235h-74.933v-783.059h783.059v783.059h-76.981v60.235h137.216zM783.059 658.824h-542.118v240.941h185.826c12.469 35.057 45.96 60.235 85.233 60.235s72.764-25.178 85.233-60.235h185.826v-240.941zM722.824 839.529h-180.706v30.118c0 16.625-13.493 30.118-30.118 30.118s-30.118-13.493-30.118-30.118v-30.118h-180.706v-120.471h421.647v120.471z" />
<glyph unicode="&#xe93e;" glyph-name="close" data-tags="close" d="M554.586 448l400.324-400.324-42.586-42.586-400.324 400.324-400.324-400.324-42.586 42.586 400.324 400.324-400.384 400.324 42.586 42.586 400.384-400.324 400.324 400.324 42.586-42.586-400.324-400.324z" />
<glyph unicode="&#xe93f;" glyph-name="cloud-down" data-tags="cloud-down" d="M1024 553.412c0-141.131-114.808-256-256-256h-166.069v60.235h166.069c107.942 0 195.765 87.823 195.765 195.765s-87.823 195.765-195.765 195.765c-32.045 0-63.669-8.493-93.967-25.118l-21.323-11.746-15.962 18.432c-43.309 49.935-105.291 78.667-169.924 78.667-100.051 0-186.669-65.054-215.401-161.912l-7.59-25.419-26.202 4.337c-7.168 1.144-14.336 2.289-21.865 2.289-74.692 0-135.529-60.777-135.529-135.529s60.838-135.529 135.529-135.529h222.81v-60.235h-222.81c-107.942 0-195.765 87.823-195.765 195.765 0 109.99 91.016 200.885 201.969 195.644 42.948 109.146 146.432 180.826 264.855 180.826 74.33 0 145.769-29.756 199.319-82.342 32.888 14.697 67.042 22.106 101.858 22.106 141.192 0 256-114.869 256-256zM542.118 132.969v465.619h-60.235v-465.619l-99.147 99.147-42.586-42.586 171.851-171.851 171.912 171.912-42.586 42.586-99.208-99.208z" />
<glyph unicode="&#xe940;" glyph-name="cloud-up" data-tags="cloud-up" d="M1024 553.412c0-141.131-114.808-256-256-256h-166.069v60.235h166.069c107.942 0 195.765 87.823 195.765 195.765s-87.823 195.765-195.765 195.765c-32.045 0-63.669-8.493-93.967-25.118l-21.323-11.746-15.962 18.432c-43.309 49.935-105.291 78.667-169.924 78.667-100.051 0-186.669-65.054-215.401-161.912l-7.59-25.419-26.202 4.337c-7.168 1.144-14.336 2.289-21.865 2.289-74.692 0-135.529-60.777-135.529-135.529s60.838-135.529 135.529-135.529h222.81v-60.235h-222.81c-107.942 0-195.765 87.823-195.765 195.765 0 109.99 92.1 200.885 201.969 195.644 42.948 109.146 146.432 180.826 264.855 180.826 74.33 0 145.769-29.756 199.319-82.342 32.888 14.697 67.042 22.106 101.858 22.106 141.192 0 256-114.869 256-256zM641.265 426.677l42.586 42.586-171.851 171.912-171.912-171.851 42.586-42.586 99.208 99.147v-469.414h60.235v469.414l99.147-99.208z" />
<glyph unicode="&#xe941;" glyph-name="cloud1" data-tags="cloud" d="M768 688.941c-34.816 0-69.030-7.409-101.858-22.106-53.549 52.585-124.988 82.342-199.319 82.342-118.423 0-221.907-71.68-264.855-180.826-108.604 4.457-201.969-85.594-201.969-195.644 0-107.942 87.823-195.765 195.765-195.765h572.235c141.131 0 256 114.869 256 256s-114.869 256-256 256zM768 237.176h-572.235c-74.752 0-135.529 60.777-135.529 135.529s60.777 135.529 135.529 135.529c7.529 0 14.697-1.144 21.865-2.289l26.202-4.337 7.59 25.419c28.792 96.858 115.351 161.912 215.401 161.912 64.632 0 126.615-28.732 169.924-78.728l15.962-18.432 21.323 11.746c30.298 16.685 61.862 25.178 93.967 25.178 107.942 0 195.765-87.823 195.765-195.765s-87.823-195.765-195.765-195.765z" />
<glyph unicode="&#xe942;" glyph-name="comment-alt" data-tags="comment-alt" d="M933.647 960h-843.294c-49.815 0-90.353-40.538-90.353-90.353v-602.353c0-49.815 40.538-90.353 90.353-90.353h30.118v-247.085l282.383 247.085h530.793c49.815 0 90.353 40.538 90.353 90.353v602.353c0 49.815-40.538 90.353-90.353 90.353zM963.765 267.294c0-16.565-13.493-30.118-30.118-30.118h-553.442l-199.499-174.562v174.562h-90.353c-16.625 0-30.118 13.553-30.118 30.118v602.353c0 16.565 13.493 30.118 30.118 30.118h843.294c16.625 0 30.118-13.553 30.118-30.118v-602.353zM180.706 779.294h662.588v-60.235h-662.588v60.235zM180.706 658.824h662.588v-60.235h-662.588v60.235zM180.706 538.353h361.412v-60.235h-361.412v60.235z" />
<glyph unicode="&#xe943;" glyph-name="comment" data-tags="comment" d="M933.647 960h-843.294c-49.815 0-90.353-40.538-90.353-90.353v-602.353c0-49.815 40.538-90.353 90.353-90.353h30.118v-247.085l282.383 247.085h530.793c49.815 0 90.353 40.538 90.353 90.353v602.353c0 49.815-40.538 90.353-90.353 90.353zM963.765 267.294c0-16.565-13.493-30.118-30.118-30.118h-553.442l-199.499-174.562v174.562h-90.353c-16.625 0-30.118 13.553-30.118 30.118v602.353c0 16.565 13.493 30.118 30.118 30.118h843.294c16.625 0 30.118-13.553 30.118-30.118v-602.353z" />
<glyph unicode="&#xe944;" glyph-name="comments-smiley" data-tags="comments-smiley" d="M783.059 478.118h60.235c0-149.444-121.615-271.059-271.059-271.059s-271.059 121.615-271.059 271.059h60.235c0-116.254 94.569-210.824 210.824-210.824s210.824 94.569 210.824 210.824zM451.765 568.471c33.31 0 60.235 26.925 60.235 60.235s-26.925 60.235-60.235 60.235-60.235-26.925-60.235-60.235 26.925-60.235 60.235-60.235zM692.706 568.471c33.31 0 60.235 26.925 60.235 60.235s-26.925 60.235-60.235 60.235-60.235-26.925-60.235-60.235 26.925-60.235 60.235-60.235zM1024 508.235c0-249.133-202.632-451.765-451.765-451.765-80.715 0-159.503 21.624-229.075 62.705l-331.294-171.249 171.249 331.234c-41.020 69.572-62.645 148.36-62.645 229.075 0 249.133 202.632 451.765 451.765 451.765s451.765-202.632 451.765-451.765zM963.765 508.235c0 215.883-175.646 391.529-391.529 391.529s-391.529-175.646-391.529-391.529c0-74.933 21.564-148.119 62.404-211.486l9.457-14.637-100.232-193.837 193.777 100.232 14.637-9.457c63.428-40.779 136.493-62.344 211.486-62.344 215.883 0 391.529 175.646 391.529 391.529z" />
<glyph unicode="&#xe945;" glyph-name="comments" data-tags="comments" d="M1024 869.647v-480.015c0-49.815-40.538-90.353-90.353-90.353h-30.6v60.235h30.6c16.625 0 30.118 13.553 30.118 30.118v480.015c0 16.565-13.493 30.118-30.118 30.118h-843.294c-16.625 0-30.118-13.553-30.118-30.118v-480.015c0-16.565 13.493-30.118 30.118-30.118h90.353v-174.2l107.159 94.509 39.816-45.176-207.209-182.814v247.447h-30.118c-49.815 0-90.353 40.538-90.353 90.353v480.015c0 49.815 40.538 90.353 90.353 90.353h843.294c49.815 0 90.353-40.538 90.353-90.353zM844.499 385.355v-183.296c0-49.815-40.538-90.353-90.353-90.353h-30.118v-184.561l-220.883 184.561h-51.381c-49.815 0-90.353 40.538-90.353 90.353v183.296c0 49.815 40.538 90.353 90.353 90.353h302.381c49.815 0 90.353-40.538 90.353-90.353zM784.264 385.355c0 16.565-13.493 30.118-30.118 30.118h-302.381c-16.625 0-30.118-13.553-30.118-30.118v-183.296c0-16.565 13.493-30.118 30.118-30.118h73.306l138.722-116.013v116.013h90.353c16.625 0 30.118 13.553 30.118 30.118v183.296z" />
<glyph unicode="&#xe946;" glyph-name="control-backward" data-tags="control-backward" d="M404.721 449.566l438.573-367.255v730.955l-438.573-363.701zM783.059 211.336l-284.25 237.99 284.25 235.761v-473.751zM197.632 449.325l333.704-279.432-38.731-46.261-389.12 325.873 389.24 322.741 38.49-46.381-333.583-276.54z" />
<glyph unicode="&#xe947;" glyph-name="control-eject" data-tags="control-eject" d="M510.434 796.22l-363.701-438.573h730.955l-367.255 438.573zM510.675 702.133l237.99-284.25h-473.751l235.761 284.25zM903.529 176.941v-60.235h-783.059v60.235h783.059z" />
<glyph unicode="&#xe948;" glyph-name="control-forward" data-tags="control-forward" d="M180.706 813.267v-731.016l438.573 367.315-438.573 363.701zM240.941 685.086l284.25-235.701-284.25-238.050v473.751zM920.456 449.566l-389.12-325.873-38.731 46.261 333.704 279.432-333.523 276.6 38.49 46.381 389.18-322.801z" />
<glyph unicode="&#xe949;" glyph-name="control-pause" data-tags="control-pause" d="M180.706 56.471h240.941v783.059h-240.941v-783.059zM240.941 779.294h120.471v-662.588h-120.471v662.588zM602.353 839.529v-783.059h240.941v783.059h-240.941zM783.059 116.706h-120.471v662.588h120.471v-662.588z" />
<glyph unicode="&#xe94a;" glyph-name="control-play" data-tags="control-play" d="M180.706 797.847v-699.814l699.814 351.593-699.814 348.22zM240.941 700.506l504.892-251.181-504.892-253.651v504.832z" />
<glyph unicode="&#xe94b;" glyph-name="control-record" data-tags="control-record" d="M512 809.412c-199.319 0-361.412-162.093-361.412-361.412s162.093-361.412 361.412-361.412 361.412 162.093 361.412 361.412-162.093 361.412-361.412 361.412zM512 146.824c-166.069 0-301.176 135.108-301.176 301.176s135.108 301.176 301.176 301.176 301.176-135.108 301.176-301.176-135.108-301.176-301.176-301.176z" />
<glyph unicode="&#xe94c;" glyph-name="control-shuffle" data-tags="control-shuffle" d="M538.504 546.123l65.114 80.715-0.241 0.181c51.501 58.488 125.711 92.040 203.475 92.040h114.327l-99.147 99.147 42.586 42.586 171.851-171.851-171.912-171.912-42.586 42.586 99.208 99.208h-114.327c-59.573 0-116.314-25.6-156.311-69.813l-65.054-80.655-46.984 37.768zM352.437 315.723l-0.663 0.482c-40.177-50.176-100.171-79.029-164.623-79.029h-187.151v-60.235h187.151c82.462 0 159.322 36.804 211.004 100.954l0.663-0.542 56.681 70.234-46.803 37.888-56.26-69.752zM821.971 336.324l99.208-99.147h-114.327c-63.368 0-122.338 28.25-162.635 77.161l-257.144 317.139-0.602-0.482c-51.2 55.778-123.362 88.064-199.319 88.064h-187.151v-60.235h187.151c60.115 0 117.338-25.781 157.274-70.475l250.639-309.128-0.301-0.241c51.802-64.813 129.084-102.039 212.028-102.039h114.327l-99.147-99.147 42.586-42.586 171.912 171.912-171.912 171.912-42.586-42.707z" />
<glyph unicode="&#xe94d;" glyph-name="social-android" data-tags="social-android" d="M229.436 616.9h565.188v-410.022c0-37.527-30.238-67.765-67.042-67.765h-46.321v-139.746c0-35.117-28.25-63.368-63.307-63.368-35.117 0-63.548 28.311-63.548 63.368v139.746h-84.811v-139.746c0-35.057-28.431-63.368-63.548-63.368-34.394 0-62.765 28.311-62.765 63.368l-0.542 139.746h-45.598c-37.466 0-67.704 30.178-67.704 67.765v410.022zM141.975 628.585c-35.057 0-63.428-28.371-63.428-62.765v-264.794c0-35.117 28.371-63.368 63.428-63.368s62.765 28.311 62.765 63.368v264.794c0 34.394-28.19 62.765-62.765 62.765zM796.431 639.066h-569.464c0 97.882 58.549 182.874 145.348 227.147l-43.791 80.595c-2.47 4.337-1.265 9.879 3.072 12.348 4.277 1.867 9.879 0.663 12.348-3.735l44.273-81.257c37.647 16.685 79.511 25.901 123.784 25.901s86.136-9.216 123.784-25.841l44.273 81.257c2.47 4.337 8.072 5.542 12.348 3.735 4.337-2.47 5.542-8.011 3.072-12.348l-43.791-80.595c86.257-44.333 144.745-129.325 144.745-227.208zM406.046 765.862c0 12.951-10.421 24.034-23.913 24.034-13.011 0-23.432-11.083-23.432-24.034 0-12.89 10.421-23.974 23.432-23.974 13.493-0.060 23.913 11.023 23.913 23.974zM665.299 765.862c0 12.951-10.421 24.034-23.432 24.034-13.553 0-23.913-11.083-23.913-24.034 0-12.89 10.421-23.974 23.913-23.974 13.011-0.060 23.432 11.023 23.432 23.974zM882.025 628.585c-34.515 0-62.765-27.708-62.765-62.765v-264.794c0-35.117 28.25-63.368 62.765-63.368 35.057 0 63.428 28.311 63.428 63.368v264.794c-0.060 35.057-28.371 62.765-63.428 62.765z" />
<glyph unicode="&#xe94e;" glyph-name="control-skip-backward" data-tags="control-skip-backward" d="M404.721 446.434l438.573-363.701v730.955l-438.573-367.255zM783.059 210.914l-284.25 235.761 284.25 237.99v-473.751zM180.706 839.529h60.235v-783.059h-60.235v783.059z" />
<glyph unicode="&#xe94f;" glyph-name="control-skip-forward" data-tags="control-skip-forward" d="M180.706 82.312l438.573 367.255-438.573 363.701v-730.955zM240.941 685.086l284.25-235.761-284.25-237.99v473.751zM843.294 839.529v-783.059h-60.235v783.059h60.235z" />
<glyph unicode="&#xe950;" glyph-name="control-stop" data-tags="control-stop" d="M180.706 779.294v-662.588h662.588v662.588h-662.588zM783.059 176.941h-542.118v542.118h542.118v-542.118z" />
<glyph unicode="&#xe951;" glyph-name="credit-card" data-tags="credit-card" d="M933.647 839.529h-843.294c-49.815 0-90.353-40.538-90.353-90.353v-602.353c0-49.815 40.538-90.353 90.353-90.353h843.294c49.815 0 90.353 40.538 90.353 90.353v602.353c0 49.815-40.538 90.353-90.353 90.353zM963.765 146.824c0-16.565-13.493-30.118-30.118-30.118h-843.294c-16.625 0-30.118 13.553-30.118 30.118v331.294h903.529v-331.294zM60.235 658.824v90.353c0 16.565 13.493 30.118 30.118 30.118h843.294c16.625 0 30.118-13.553 30.118-30.118v-90.353h-903.529z" />
<glyph unicode="&#xe952;" glyph-name="crown" data-tags="crown" d="M760.531 553.833l-245.941 401.95-253.651-402.071-270.999 230.882 104.749-788.36h834.56l104.689 787.576-273.408-229.978zM147.396 56.471l-8.011 60.235h745.171l-8.011-60.235h-729.148zM892.567 176.941h-761.133l-61.139 460.017 204.559-174.2 238.953 378.88 231.966-379 208.053 175.044-61.259-460.74z" />
<glyph unicode="&#xe953;" glyph-name="cup" data-tags="cup" d="M1023.94 899.765h-135.951c0.060 10.12 0.482 19.757 0.482 30.118v30.118h-752.941v-30.118c0-9.638 0.241-20.058 0.301-30.118h-135.77l-0.060-30.057c-0.181-65.416 3.735-132.457 11.746-199.379 21.203-176.911 76.559-381.952 168.358-426.888 11.686-5.783 23.793-8.674 35.9-8.674 14.336 0 28.853 4.096 42.586 12.408l12.589 8.433c50.176-76.92 118.664-128.843 210.703-138.421v-120.952h-177.875v-60.235h421.647v60.235h-183.537v120.29c85.233 8.975 155.708 56.32 210.402 139.264l14.095-9.336c13.011-7.831 26.925-11.686 41.020-11.686 12.107 0 24.335 2.891 36.262 8.734 91.799 44.936 147.155 249.976 168.358 426.888 8.011 66.861 11.927 133.963 11.746 199.379l-0.060 29.997zM240.218 307.411l-13.794-9.276c-6.746-3.976-12.288-4.216-19.757-0.602-47.285 23.191-108.905 161.129-135.108 380.024-6.505 54.212-10.18 108.544-11.083 161.973h76.68c5.843-176.128 30.901-389.602 107.942-539.467l-4.879 7.349zM512 174.472c-273.468 0-313.163 484.894-316.055 725.293h632.109c-2.952-284.371-50.477-725.293-316.055-725.293zM952.44 677.557c-26.263-218.895-87.823-356.834-135.108-380.024-7.409-3.674-13.011-3.494-18.552-0.181l-15.059 10.059-6.987-10.481c64.994 122.76 102.822 305.152 110.291 542.6h76.559c-0.964-53.429-4.638-107.761-11.144-161.973z" />
<glyph unicode="&#xe954;" glyph-name="cut" data-tags="cut" d="M783.059 297.412c-32.828 0-63.187-9.457-89.751-24.817l-139.866 147.817 377.073 398.396-43.791 41.442-374.724-395.987-374.844 395.987-43.731-41.442 377.073-398.396-139.866-147.757c-26.504 15.3-56.922 24.757-89.69 24.757-99.629 0-180.706-81.077-180.706-180.706s81.077-180.706 180.706-180.706 180.706 81.077 180.706 180.706c0 44.996-17.167 85.775-44.454 117.399l134.807 142.456 134.807-142.456c-27.347-31.684-44.454-72.403-44.454-117.399 0-99.629 81.077-180.706 180.706-180.706s180.706 81.077 180.706 180.706-81.077 180.706-180.706 180.706zM240.941-3.765c-66.44 0-120.471 54.031-120.471 120.471s54.031 120.471 120.471 120.471 120.471-54.031 120.471-120.471-54.031-120.471-120.471-120.471zM783.059-3.765c-66.44 0-120.471 54.031-120.471 120.471s54.031 120.471 120.471 120.471 120.471-54.031 120.471-120.471-54.031-120.471-120.471-120.471z" />
<glyph unicode="&#xe955;" glyph-name="dashboard" data-tags="dashboard" d="M1024 267.294v-30.118h-371.531v60.235h310.332c-6.746 101.918-47.526 194.62-110.953 267.083l-48.55-48.55-42.586 42.586 48.309 48.309c-72.403 63.428-165.045 103.966-266.903 110.773v-179.26h-60.235v179.26c-101.858-6.807-194.5-47.345-266.842-110.773l47.947-47.947-42.586-42.586-48.188 48.188c-63.428-72.463-104.267-165.165-110.953-267.083h311.477v-60.235h-372.736v30.118c0 282.323 229.677 512 512 512s512-229.677 512-512zM632.471 267.294c0-66.44-54.031-120.471-120.471-120.471s-120.471 54.031-120.471 120.471c0 38.792 18.733 72.885 47.224 94.991l-125.41 218.654 52.224 29.937 128.964-224.858c5.722 0.843 11.445 1.747 17.468 1.747 66.44 0 120.471-54.031 120.471-120.471zM572.235 267.294c0 33.19-27.046 60.235-60.235 60.235s-60.235-27.046-60.235-60.235 27.046-60.235 60.235-60.235 60.235 27.046 60.235 60.235z" />
<glyph unicode="&#xe956;" glyph-name="car" data-tags="car" d="M1016.946 449.767c-4.343 42.37-4.343 36.259-20.312 82.121-16.289 46.479-50.652 137.434-75.222 191.215-25.188 54.398-51.843 100.856-71.284 129.514-19.289 28.616-24.42 31.063-42.647 38.983-18.865 8.090-42.988 6.708-67.088 8.24-23.932 2.15-48.99 3.194-75.669 3.194h-303.825c-27.273 0-52.908-1.044-76.883-3.194-24.25-1.512-48.97-0.15-67.217-8.219-18.524-7.899-23.803-10.369-42.647-39.006-19.906-28.658-46.117-75.116-71.155-129.514-24.867-53.802-59.233-144.759-75.201-191.215-16.118-45.882-16.713-39.794-20.482-82.141-4.067-42.647-11.775-123.574-3.938-168.668 7.41-43.582 25.784-73.157 48.693-94.469 22.738-21.185 51.695-32.172 87.4-32.937-1.959-44.946-1.959-79.671 0-104.794 1.044-24.867-0.767-35.854 10.24-45.264 11.136-9.028 39.644-9.454 56.975-10.199 17.033-1.085 35.428-0.597 44.753 6.090 8.751 7.602 6.196 13.413 7.984 39.177 1.512 26.508 2.406 64.896 2.108 116.995h498.106c1.235-52.099 2.747-90.487 5.152-116.995 1.959-25.761-0.767-31.554 8.111-39.177 9.219-6.685 27.040-7.175 44.626-6.090 16.883 0.744 45.37 1.191 56.975 10.199 10.56 9.411 8.751 20.397 10.24 45.264 1.661 25.123 1.661 59.892 0 104.794 35.577 0.767 64.512 11.752 87.42 32.937 22.738 21.312 41.006 50.887 48.843 94.469 6.961 45.117 0.17 126.044-4.067 168.691zM150.95 264.767c-52.76 0-95.554 43.264-95.554 96.577 0 53.355 42.794 96.619 95.554 96.619 52.737 0 95.554-43.264 95.554-96.619 0-53.313-42.817-96.577-95.554-96.577zM647.928 283.27h-271.441c-28.36 0-51.334 15.648-51.334 34.96s22.994 34.96 51.334 34.96h271.441c28.36 0 51.334-15.648 51.334-34.96s-22.973-34.96-51.334-34.96zM647.928 377.866h-271.441c-28.36 0-51.334 15.627-51.334 34.895s22.994 34.875 51.334 34.875h271.441c28.36 0 51.334-15.607 51.334-34.875s-22.973-34.895-51.334-34.895zM691.404 560.693c-79.139-0.297-283.64-0.297-361.864 0-77.627 0.618-70.835-0.618-101.73 2.129-31.213 2.767-67.664 5.344-83.356 14.33-15.671 9.752-13.881 20.738-10.24 41.156 3.768 20.886 16.862 51.801 30.596 82.268 13.265 31.084 32.704 76.798 46.734 100.727 13.265 24.059 19.736 32.298 34.492 41.135 14.627 8.963 32.874 10.325 52.931 12.348 19.588 2.576 41.283 3.044 65.108 2.002h296.182c23.655 1.044 45.37 0.574 65.108-2.002 19.588-1.979 37.813-3.343 52.887-12.348 14.648-8.857 20.503-17.074 34.534-41.135 14.010-23.932 33.151-69.643 46.84-100.727 12.839-30.49 26.849-61.383 30.446-82.268 3.321-20.397 5.131-31.384-10.219-41.156-16.118-8.984-51.866-11.583-83.333-14.33-31.702-2.747-27.188-1.512-105.115-2.129zM873.381 264.767c-52.737 0-95.554 43.264-95.554 96.577 0 53.355 42.838 96.619 95.554 96.619s95.554-43.264 95.554-96.619c0-53.313-42.817-96.577-95.554-96.577z" />
<glyph unicode="&#xe957;" glyph-name="truck" data-tags="truck" d="M895.946 192.013c0-53.011-42.974-95.987-95.987-95.987s-95.987 42.974-95.987 95.987c0 53.011 42.974 95.987 95.987 95.987s95.987-42.974 95.987-95.987zM735.996 607.983v127.988c0 35.356-28.67 64.005-64.005 64.005h-607.985c-35.335 0-64.005-28.65-64.005-64.005v-351.964c0-35.356 28.67-64.026 64.005-64.026h64.005v-0.785c26.803 20.31 59.846 32.809 95.987 32.809 88.22 0 159.991-71.794 159.991-159.991h255.999c0 65.406 39.58 121.665 95.987 146.431v269.538zM988.58 550.748c-15.811 31.621-57.278 57.258-92.611 57.258h-127.967v-259.203c10.315 2.101 21.052 3.225 31.982 3.225 88.241 0 159.991-71.794 159.991-159.991 35.356 0 64.026 28.65 64.026 64.005v223.976l-35.42 70.733zM978.435 447.992h-146.452v127.988h63.985c17.699 0 38.434-12.818 46.307-28.629l36.183-72.388v-26.973h-0.021zM319.986 192.013c0-53.011-42.974-95.987-95.987-95.987s-95.987 42.974-95.987 95.987c0 53.011 42.974 95.987 95.987 95.987s95.987-42.974 95.987-95.987z" />
<glyph unicode="&#xe958;" glyph-name="bus" data-tags="bus" d="M383.991 257.776c0-33.374-27.056-60.43-60.43-60.43s-60.43 27.056-60.43 60.43c0 33.374 27.056 60.43 60.43 60.43s60.43-27.056 60.43-60.43zM787.364 257.776c0-33.374-27.056-60.43-60.43-60.43s-60.43 27.056-60.43 60.43c0 33.374 27.056 60.43 60.43 60.43s60.43-27.056 60.43-60.43zM57.428 448.477h42.598v-318.010c0-39.505 25.063-72.933 59.928-86.072v-45.97c0-34.362 27.969-62.424 62.442-62.424h58.605c34.398 0 62.424 28.026 62.424 62.424v39.821h337.128v-39.821c0-34.362 27.969-62.424 62.424-62.424h58.605c34.417 0 62.442 28.026 62.442 62.424v45.97c34.921 13.137 59.928 46.567 59.928 86.072v318.010h42.635c18.094 0 32.666 14.627 32.666 32.702v227.987c0 18.075-14.572 32.684-32.666 32.684h-42.635v96.246c0 67.232-54.71 121.904-121.886 121.904h-580.097c-67.232 0-121.904-54.71-121.904-121.904v-96.246h-42.635c-18.037 0-32.684-14.609-32.684-32.684v-228.044c-0.018-18.019 14.647-32.646 32.684-32.646zM278.057 1.333h-52.716v36.895h52.716v-36.895zM798.545 1.333h-52.716v36.895h52.716v-36.895zM557.921 894.652h244.014c31.212 0 56.554-25.38 56.554-56.554v-354.011h-300.568v410.565zM165.357 709.168v128.93c0 31.176 25.342 56.554 56.554 56.554h270.624v-410.565h-327.178v225.081zM165.357 418.755h693.077v-288.288c0-14.796-12.038-26.87-26.777-26.87h-639.43c-14.796 0-26.814 12.076-26.814 26.87v288.288h-0.056z" />
<glyph unicode="&#xe959;" glyph-name="desktop" data-tags="desktop" d="M120.471 297.412h783.059v481.882h-783.059v-481.882zM180.706 719.059h662.588v-361.412h-662.588v361.412zM933.647 899.765h-843.294c-49.815 0-90.353-38.43-90.353-85.715v-611.629c0-47.285 40.538-85.715 90.353-85.715h843.294c49.815 0 90.353 38.43 90.353 85.715v611.629c0 47.285-40.538 85.715-90.353 85.715zM963.765 202.421c0-14.095-13.553-25.48-30.118-25.48h-843.294c-16.565 0-30.118 11.384-30.118 25.48v611.629c0 14.095 13.553 25.48 30.118 25.48h843.294c16.565 0 30.118-11.384 30.118-25.48v-611.629zM301.176 56.471h421.647v-60.235h-421.647v60.235z" />
<glyph unicode="&#xe95a;" glyph-name="direction-alt" data-tags="direction-alt" d="M542.118 598.588h282.805l116.736 154.383-117.218 146.793h-282.323v60.235h-60.235v-60.235h-361.412v-301.176h361.412v-120.471h-282.323l-117.218-146.793 116.736-154.383h282.805v-240.941h60.235v240.941h361.412v301.176h-361.412v120.471zM180.706 839.529h614.761l69.933-87.582-70.415-93.124h-614.28v180.706zM843.294 237.176h-614.28l-70.415 93.124 69.933 87.582h614.761v-180.706z" />
<glyph unicode="&#xe95b;" glyph-name="direction" data-tags="direction" d="M1002.376 634.187l-169.321 205.342h-290.936v120.471h-60.235v-120.471h-421.647v-421.647h421.647v-481.882h60.235v481.882h291.418l168.84 216.305zM542.118 478.118h-421.647v301.176h684.152l120.531-146.131-121.013-155.046h-262.024z" />
<glyph unicode="&#xe95c;" glyph-name="download" data-tags="download" d="M1024-3.765v-60.235h-1024v60.235h1024zM804.382 426.677l-42.586 42.586-219.618-219.618v710.355h-60.235v-710.415l-219.678 219.738-42.647-42.647 292.382-292.322 292.382 292.322z" />
<glyph unicode="&#xe95d;" glyph-name="dribbble" data-tags="dribbble" d="M512 960c-282.744 0-512-229.256-512-512s229.256-512 512-512 512 229.256 512 512-229.256 512-512 512zM963.403 440.712c-124.988 27.467-234.677 25.48-329.427 5.542-15.119 37.768-32.286 76.68-51.14 116.254 101.256 39.032 198.295 95.533 273.95 176.73 66.62-78.788 106.978-180.344 106.978-291.238 0-2.47-0.361-4.819-0.361-7.288zM814.562 782.487c-69.873-75.716-161.912-128.602-258.831-165.045-45.779 88.425-101.798 178.296-169.502 264.132 39.996 11.625 82.101 18.191 125.771 18.191 116.495 0 222.389-44.695 302.562-117.278zM327.078 859.708c68.247-84.149 124.205-173.719 170.345-262.204-179.14-55.416-359.364-61.922-428.514-62.042 28.552 144.986 126.735 265.035 258.168 324.247zM60.235 448c0 9.096 0.843 18.071 1.325 27.046 3.915-0.060 8.072-0.060 12.77-0.060 78.667 0 265.156 7.529 450.68 67.102 18.071-37.647 34.816-74.993 49.393-111.074-217.148-66.319-345.51-223.172-392.312-290.696-75.354 80.715-121.856 188.717-121.856 307.682zM226.364 98.394c35.9 54.272 156.672 211.908 370.146 275.275 57.886-156.491 84.631-285.756 94.328-340.39-54.874-23.733-115.29-37.045-178.839-37.045-108.303 0-207.752 38.37-285.636 102.159zM746.918 62.856c-11.927 64.030-38.31 183.236-90.534 325.572 86.98 16.866 187.272 17.348 301.658-8.734-20.54-134.084-99.87-248.712-211.125-316.838z" />
<glyph unicode="&#xe95e;" glyph-name="pencil-alt" data-tags="pencil-alt" d="M396 332l116 58 406 406-58 58-406-406-58-116zM310.177 126.193c-28.667 60.473-59.51 91.315-119.985 119.983l89.805 247.217 116 70.607 348 348h-174l-348-348-174-580 580 174 348 348v174l-348-348-70.607-116z" />
<glyph unicode="&#xe95f;" glyph-name="email" data-tags="email" d="M0 839.529v-783.059h1024v783.059h-1024zM511.639 368.67l-415.383 410.624h832.452l-417.069-410.624zM346.654 447.036l-286.419-282.022v565.188l286.419-283.166zM389.481 404.691l122.037-120.651 120.23 118.423 289.129-285.756h-823.838l292.442 287.985zM674.696 444.687l289.069 284.612v-570.248l-289.069 285.636z" />
<glyph unicode="&#xe960;" glyph-name="envelope" data-tags="envelope" d="M120.471 960v-1024h783.059v1024h-783.059zM282.805 719.059l-84.811 180.706h628.013l-84.932-180.706h-458.27zM244.616 658.824h237.267v-542.118h-241.062l-60.115-69.572v747.761l63.91-136.072zM268.348 56.471h487.424l51.923-60.235h-591.27l51.923 60.235zM783.42 116.706h-241.303v542.118h237.207l63.97 136.192v-747.821l-59.874 69.512z" />
<glyph unicode="&#xe961;" glyph-name="train" data-tags="train" d="M464.054 888.089c-19.787 0.066-35.922 16.201-35.954 35.954 0.032 20.034 16.169 36.17 35.954 35.954 20.001 0.215 36.12-15.921 35.954-35.954 0.165-19.753-15.971-35.872-35.954-35.954v0zM559.946 888.089c19.819 0.066 35.972 16.201 35.972 35.954 0 20.034-16.153 36.17-35.972 35.954-19.967 0.215-36.104-15.921-35.972-35.954-0.116-19.753 16.005-35.872 35.972-35.954v0zM702.726 160.615c49.894 8.308 99.624 60.399 99.524 124.001v464.343c0.116 65.468-55.031 125.653-129.765 125.586h-320.473c-75.163 0.066-130.343-60.118-130.261-125.586v-464.343c-0.066-63.602 49.68-115.727 99.524-124.001l-149.551-224.615h86.477l106.824 157.379h293.932l107.303-157.379h86.015l-149.551 224.615zM427.571 826.567c0.016 11.643 9.926 21.222 21.354 21.388h126.148c11.429-0.165 21.372-9.745 21.372-21.388v-36.451c0-11.593-9.364-21.421-21.372-21.372h-126.132c-11.942-0.050-21.322 9.777-21.338 21.372l-0.032 36.451zM348.89 228.364c-31.314 0.248-56.847 25.782-56.781 57.326-0.066 31.446 25.467 56.963 56.781 56.797 31.661 0.165 57.178-25.351 57.326-56.797-0.148-31.562-25.682-57.096-57.326-57.326zM356.19 530.074c-35.922 0.215-65.221 24.79-65.155 65.155v83.355c0.248 34.765 22.725 65.089 65.155 65.155h311.62c42.478-0.066 64.973-30.372 65.139-65.155v-83.355c0.098-40.365-29.183-64.957-65.139-65.155h-311.62zM616.759 285.658c-0.098 31.462 25.401 56.947 56.781 56.781 31.661 0.198 57.194-25.319 57.36-56.781-0.165-31.528-25.698-57.062-57.36-57.326-31.38 0.265-56.881 25.798-56.781 57.326z" />
<glyph unicode="&#xe962;" glyph-name="eraser" data-tags="eraser" d="M809.924 706.952l-312.983 180.766c-41.562 23.913-99.388 8.493-123.362-33.129l-361.412-626.025c-24.937-43.128-10.059-98.485 33.129-123.482l191.488-109.869 262.445 1.084 343.823 587.234c24.877 43.128 10.059 98.485-33.129 123.422zM464.595 56.41l-211.908-0.843-177.393 101.737c-14.396 8.373-19.336 26.744-11.023 41.201l165.647 286.961 363.038-209.619-128.361-219.437zM790.889 613.828l-167.514-286.118-363.339 209.8 165.647 286.961c5.361 9.276 15.42 15.059 26.142 15.059 5.301 0 10.36-1.325 14.999-3.976l312.983-180.706c14.396-8.373 19.336-26.805 11.083-41.020zM1024 56.471v-60.235h-421.647v60.235h421.647z" />
<glyph unicode="&#xe963;" glyph-name="exchange-vertical" data-tags="exchange-vertical" d="M361.412 53.88v424.237h-60.235v-424.237l-219.618 219.618-42.586-42.586 292.322-292.322 292.382 292.382-42.586 42.586-219.678-219.678zM330.571 24.486h1.385l-0.663-0.723-0.723 0.723zM942.441 622.441l-219.618 219.678v-427.43h-60.235v427.43l-219.618-219.678-42.647 42.647 292.382 292.322 292.382-292.382-42.647-42.586z" />
<glyph unicode="&#xe964;" glyph-name="export" data-tags="export" d="M262.566 601.239l-43.249 41.984 292.683 301.478 292.683-301.478-43.249-41.924-219.317 225.882v-648.553h-60.235v648.553l-219.317-225.943zM963.765 416.075v-389.722c0-16.625-13.493-30.118-30.118-30.118h-843.294c-16.625 0-30.118 13.493-30.118 30.118v390.024h-60.235v-390.024c0-49.815 40.538-90.353 90.353-90.353h843.294c49.815 0 90.353 40.538 90.353 90.353v389.722h-60.235z" />
<glyph unicode="&#xe965;" glyph-name="face-sad" data-tags="face-sad" d="M512 960c-282.323 0-512-229.677-512-512s229.677-512 512-512 512 229.677 512 512-229.677 512-512 512zM512-3.765c-249.133 0-451.765 202.632-451.765 451.765s202.632 451.765 451.765 451.765 451.765-202.632 451.765-451.765-202.632-451.765-451.765-451.765zM783.059 176.941c0-16.625-13.493-30.118-30.118-30.118s-30.118 13.493-30.118 30.118c0 116.254-94.569 210.824-210.824 210.824s-210.824-94.569-210.824-210.824c0-16.625-13.493-30.118-30.118-30.118s-30.118 13.493-30.118 30.118c0 149.444 121.615 271.059 271.059 271.059s271.059-121.615 271.059-271.059zM271.059 628.706c0 33.25 26.985 60.235 60.235 60.235s60.235-26.985 60.235-60.235-26.985-60.235-60.235-60.235-60.235 26.985-60.235 60.235zM632.471 628.706c0 33.25 26.985 60.235 60.235 60.235s60.235-26.985 60.235-60.235-26.985-60.235-60.235-60.235-60.235 26.985-60.235 60.235z" />
<glyph unicode="&#xe966;" glyph-name="face-smile" data-tags="face-smile" d="M512 960c-282.323 0-512-229.677-512-512s229.677-512 512-512 512 229.677 512 512-229.677 512-512 512zM512-3.765c-249.133 0-451.765 202.632-451.765 451.765s202.632 451.765 451.765 451.765 451.765-202.632 451.765-451.765-202.632-451.765-451.765-451.765zM783.059 417.882c0-149.444-121.615-271.059-271.059-271.059s-271.059 121.615-271.059 271.059c0 16.625 13.493 30.118 30.118 30.118s30.118-13.493 30.118-30.118c0-116.254 94.569-210.824 210.824-210.824s210.824 94.569 210.824 210.824c0 16.625 13.493 30.118 30.118 30.118s30.118-13.493 30.118-30.118zM271.059 628.706c0 33.25 26.985 60.235 60.235 60.235s60.235-26.985 60.235-60.235-26.985-60.235-60.235-60.235-60.235 26.985-60.235 60.235zM632.471 628.706c0 33.25 26.985 60.235 60.235 60.235s60.235-26.985 60.235-60.235-26.985-60.235-60.235-60.235-60.235 26.985-60.235 60.235z" />
<glyph unicode="&#xe967;" glyph-name="file" data-tags="file" d="M582.295 960h-461.824v-1024h783.059v704.271l-321.235 319.729zM602.353 855.070l197.15-196.247h-197.15v196.247zM180.706-3.765v903.529h361.412v-301.176h301.176v-602.353h-662.588z" />
<glyph unicode="&#xe968;" glyph-name="submarine" data-tags="submarine" d="M813.361 11.804h-0.041c-0.147 0-15.808-13.107-36.682-14.197-14.113-0.963-29.293 10.070-45.332 26.132-30.068 30.045-62.583 45.604-96.023 43.594-49.080-3.057-79.501-39.112-83.417-44.054-0.041-0.041-0.041 0.335-0.041 0.335-0.188-0.209-15.851-18.991-36.725-20.079-14.154-1.006-29.272 7.161-45.352 23.136-30.025 30.045-62.563 38.024-96 36.055-49.037-3.057-79.524-34.527-83.437-50.899 0 0-0.041 0-0.041 0-0.168 0-15.828-13.107-36.682-14.197-13.986-0.984-29.313 10.070-45.352 26.132-30.025 30.025-62.563 45.561-96.023 43.571-24.183-1.507-43.698-9.715-57.915-19.744v-76.299c9.59 0 19.137 4.040 25.608 12.019 0.168 0.231 15.828 19.2 36.705 20.29 14.321 0.628 29.313-7.036 45.352-23.073 28.099-28.078 58.144-42.295 89.51-42.295 2.178 0 4.355-2.030 6.512-1.885 49.037 3.057 79.524 26.424 83.437 42.755 0 0 0.020 0 0.020 0 0.168 0 15.828 21.294 36.705 22.384 14.154 0.587 29.313-5.989 45.352-22.048 28.078-28.099 58.166-41.751 89.531-41.751 2.178 0 4.355-1.758 6.49-1.654 49.057 3.077 79.524 26.696 83.437 43.048h0.020c0.168 0 15.828 21.294 36.725 22.361 14.197 0.587 29.272-5.967 45.352-22.048 28.058-28.099 58.103-41.729 89.469-41.729 2.178 0 4.376-1.779 6.512-1.654 49.057 3.077 79.501 26.676 83.437 43.027 0.041 0 0.041 0 0.041 0 0.188 0 15.828 21.314 36.705 22.384 14.217 0.587 29.293-5.989 45.332-22.026 7.559-7.58 15.284-13.023 23.116-18.529v85.406c-23.388 16.458-47.886 17.881-72.884 16.374-48.996-2.932-79.501-34.464-83.417-50.838zM740.85 820.996c45.142 0 81.742-40.87 81.742-89.909h49.037c0 81.722-58.522 138.946-130.759 138.946l-0.020-49.037zM253.54 69.111c20.875 1.067 36.537 20.079 36.705 20.267 0 0.020 0 0.020 0 0.020 3.936 4.983 34.423 41.792 83.437 44.849 7.999 0.483 15.996-0.020 23.87-1.403v279.523c0 54.147 43.929 89.886 98.073 89.886h245.227c126.36 0 228.852 102.472 228.852 228.873s-102.429 228.873-228.852 228.873h-359.631c-126.403 0-228.852-102.449-228.852-228.852 0-5.527 0.44 0 0.838-16.331h-0.838v-586.161c19.263-6.553 37.981-18.613 55.821-36.411 16.059-16.123 31.344-24.12 45.352-23.136zM904.314 739.254c0-90.285-73.158-163.484-163.464-163.484s-163.484 73.199-163.484 163.484c0 90.306 73.179 163.484 163.484 163.484s163.464-73.179 163.464-163.484z" />
</font>
</defs>
</svg>
